<svg xmlns="http://www.w3.org/2000/svg" viewBox="0 0 400 300"><g id="_61_doctor" data-name="#61_doctor"><rect x="149.07" y="135.88" width="56.27" height="11.46" fill="#fff"/><path d="M205.34,147.83H149.07a.5.5,0,0,1-.5-.5V135.88a.5.5,0,0,1,.5-.5h56.27a.5.5,0,0,1,.5.5v11.45A.5.5,0,0,1,205.34,147.83Zm-55.77-1h55.27V136.38H149.57Z" fill="#d1d3d4"/><rect x="145.36" y="127.27" width="51.4" height="8.61" fill="#fff"/><path d="M196.76,136.38h-51.4a.5.5,0,0,1-.5-.5v-8.61a.5.5,0,0,1,.5-.5h51.4a.5.5,0,0,1,.5.5v8.61A.51.51,0,0,1,196.76,136.38Zm-50.9-1h50.4v-7.61h-50.4Z" fill="#d1d3d4"/><path d="M336.86,235.47H63.14a.5.5,0,0,1,0-1H336.86a.5.5,0,0,1,0,1Z" fill="#d1d3d4"/><rect x="115.94" y="153.25" width="202.13" height="92.22" fill="#fff"/><path d="M318.08,245.93H115.94a.46.46,0,0,1-.45-.46V153.25a.46.46,0,0,1,.45-.46H318.08a.46.46,0,0,1,.45.46v92.22A.46.46,0,0,1,318.08,245.93ZM116.4,245H317.62V153.71H116.4Z" fill="#231f20"/><rect x="112.57" y="147.38" width="208.89" height="5.87" rx="2.94" fill="#fff"/><path d="M318.52,153.71h-203a3.4,3.4,0,0,1,0-6.79h203a3.4,3.4,0,0,1,0,6.79Zm-203-5.87a2.48,2.48,0,1,0,0,4.95h203a2.48,2.48,0,1,0,0-4.95Z" fill="#231f20"/><path d="M93.32,200.8a7.87,7.87,0,0,0-.89-4.17A30,30,0,0,1,90.56,194c-.79-1.69-.24-3.68-.42-5.54a7,7,0,0,0-2-4.14c-1-1-2.23-1.66-3.16-2.68-1.52-1.68-2-4-2.82-6.15a15.41,15.41,0,0,0-6.09-7.16c1.66,3.34-2.13,7.59-.41,10.9.54,1.05,1.58,1.82,2,2.93,1,2.69-2.24,5.6-1.22,8.27.51,1.33,1.94,2.1,2.6,3.36.9,1.7.19,3.77.27,5.69.1,2.65,1.71,5,3.63,6.86,1.19,1.14,2.52,2.13,3.81,3.16,1.54,1.24,2.19,2.54,3.55.55A17,17,0,0,0,93.32,200.8Z" fill="#231f20"/><path d="M95,202.32c-.5-2-.85-4.28,0-6.21,1-2.19,3.31-3.74,3.58-6.11.18-1.55-.61-3.12-.3-4.65s1.57-2.58,2.6-3.71a15.5,15.5,0,0,0,4-9.48,23.72,23.72,0,0,1,3.81,6.31,8.12,8.12,0,0,1-.55,7.12,6.41,6.41,0,0,0-1,1.57c-.46,1.51.83,2.93,1.5,4.36a5,5,0,0,1-.47,5.14c-1.36,1.69-4,2.34-4.64,4.4a10.16,10.16,0,0,0-.23,2.34,6.87,6.87,0,0,1-4.94,5.89c-1.6.39-1.57-.25-1.86-1.6C96.17,205.88,95.47,204.13,95,202.32Z" fill="#231f20"/><path d="M89.93,187.57c-1.13-3.94-1.59-8.06-2.79-12a66.42,66.42,0,0,0-3.73-8.94l4.89,2.07c1.57.66,3.26,1.44,4,3,1.29,2.67-1,6.08.33,8.72a22.11,22.11,0,0,0,1.93,2.43c1.44,2,1.22,4.8.43,7.15-.34,1-1.82,6.24-3.14,4.79-.53-.58-.58-2.75-.8-3.55C90.71,190,90.29,188.8,89.93,187.57Z" fill="#231f20"/><path d="M92.53,239.93c-1-6.44-4-29.14-4.06-29.37l1-.13c0,.22,3.08,22.92,4.06,29.35Z" fill="#231f20"/><path d="M93.83,246h-1c0-7.66,3.26-36.92,5.1-38.94l.74.68C97.27,209.27,93.89,237.51,93.83,246Z" fill="#231f20"/><path d="M95.49,244.55l-1-.05c.72-16.48-2.77-51.1-2.81-51.45l1-.1C92.71,193.3,96.22,228,95.49,244.55Z" fill="#231f20"/><path d="M84.23,221.46h18.2l-1.28,20.67c-.22,3.57-2.87,6.35-6.06,6.35H91.57c-3.2,0-5.85-2.78-6.07-6.35Z" fill="#fff"/><path d="M95.09,249H91.57c-3.45,0-6.34-3-6.58-6.83l-1.27-20.67a.52.52,0,0,1,.13-.38.55.55,0,0,1,.38-.16h18.2a.52.52,0,0,1,.37.16.49.49,0,0,1,.14.38l-1.27,20.67C101.43,246,98.54,249,95.09,249ZM84.78,222,86,242.09c.2,3.29,2.64,5.87,5.55,5.87h3.52c2.91,0,5.35-2.58,5.55-5.87L101.88,222Z" fill="#231f20"/><rect x="101.9" y="46.62" width="62.8" height="69.18" fill="#fff"/><path d="M164.69,116.3H101.9a.5.5,0,0,1-.5-.5V46.62a.5.5,0,0,1,.5-.5h62.79a.5.5,0,0,1,.5.5V115.8A.5.5,0,0,1,164.69,116.3Zm-62.29-1h61.79V47.12H102.4Z" fill="#d1d3d4"/><path d="M116.35,102.92a.5.5,0,0,1-.21,0l-2.28-1.06a.5.5,0,0,1-.28-.55c1.06-5.55,4.4-8.2,7.93-11a33,33,0,0,0,6.24-6c3.11-4.11,2.73-6.24,2.29-8.72a11.69,11.69,0,0,1-.07-5.14c1.26-5.42,6.69-11.1,6.92-11.34a.49.49,0,0,1,.6-.09l3.3,1.85a.51.51,0,0,1,.25.38.53.53,0,0,1-.17.43,11.65,11.65,0,0,0-3.62,5.86c2.61-.19,11.79-.34,13.85,6.58,2.53,8.51-1.4,20-13.67,24.68-8.37,3.16-10.27-.07-11.65-2.43-.8-1.36-1.23-2-2.38-1.67-4,1.15-6.56,7.84-6.58,7.9a.5.5,0,0,1-.28.29A.43.43,0,0,1,116.35,102.92Zm-1.71-1.85,1.44.67c.7-1.67,3.18-6.91,7-8,1.95-.56,2.75.8,3.52,2.12,1.27,2.17,2.85,4.86,10.43,2,13.13-4.95,15-17,13.07-23.45-2.12-7.12-13.33-5.83-13.45-5.82a.49.49,0,0,1-.41-.14.53.53,0,0,1-.15-.41,11.94,11.94,0,0,1,3.57-6.63l-2.35-1.33c-1.11,1.21-5.36,6.1-6.4,10.6a10.83,10.83,0,0,0,.07,4.74c.44,2.48.9,5-2.47,9.49A33.76,33.76,0,0,1,122.13,91C118.69,93.77,115.7,96.14,114.64,101.07Z" fill="#d1d3d4"/><path d="M157.35,102h-11.7a.5.5,0,0,1-.5-.5.5.5,0,0,1,.5-.5h11.7a.5.5,0,0,1,.5.5A.51.51,0,0,1,157.35,102Z" fill="#d1d3d4"/><path d="M157.35,105.43h-11.7a.5.5,0,0,1-.5-.5.5.5,0,0,1,.5-.5h11.7a.51.51,0,0,1,.5.5A.5.5,0,0,1,157.35,105.43Z" fill="#d1d3d4"/><path d="M154.12,109.33h-8.67a.51.51,0,0,1-.5-.5.5.5,0,0,1,.5-.5h8.67a.5.5,0,0,1,.5.5A.51.51,0,0,1,154.12,109.33Z" fill="#d1d3d4"/><path d="M120.86,57.51H107.28a.51.51,0,0,1-.5-.5.5.5,0,0,1,.5-.5h13.58a.5.5,0,0,1,.5.5A.5.5,0,0,1,120.86,57.51Z" fill="#d1d3d4"/><path d="M120.86,62.39H107.28a.51.51,0,0,1-.5-.5.5.5,0,0,1,.5-.5h13.58a.5.5,0,0,1,.5.5A.5.5,0,0,1,120.86,62.39Z" fill="#d1d3d4"/><path d="M158.28,52.62h-51a.5.5,0,0,1-.5-.5.51.51,0,0,1,.5-.5h51a.5.5,0,0,1,.5.5A.5.5,0,0,1,158.28,52.62Z" fill="#d1d3d4"/><path d="M255.44,251.63l-1.19,14.7s-21.42,3.82-27,3.82-5-3.33,3.49-8.41c6.67-4,11.83-4.45,11.83-4.45l.67-6.85Z" fill="#fff"/><path d="M227.27,270.61c-3,0-3.82-.93-4-1.71-.62-2.28,3.62-5.36,7.3-7.55a33,33,0,0,1,11.64-4.47l.63-6.49a.47.47,0,0,1,.5-.41l12.19,1.19a.47.47,0,0,1,.41.5l-1.19,14.7a.45.45,0,0,1-.38.41C253.46,266.94,232.8,270.61,227.27,270.61Zm16.4-19.67-.63,6.39a.45.45,0,0,1-.41.41A31.4,31.4,0,0,0,231,262.13c-5.5,3.28-7.16,5.52-6.89,6.53.19.66,1.34,1,3.16,1,5.07,0,23.77-3.25,26.56-3.75L255,252Z" fill="#231f20"/><path d="M284.66,251.86a31.25,31.25,0,0,1,.73,9.38c-.55,4.05-.82,9.5.13,12.76s5.13,6.72,8.4,4.54S297,266,296.46,263.3s-2-9.8-1.82-13.61Z" fill="#fff"/><path d="M291.69,279.68a5.16,5.16,0,0,1-1.77-.33,8.32,8.32,0,0,1-4.83-5.22c-1.21-4.11-.42-10.95-.15-12.95a31.17,31.17,0,0,0-.72-9.21.44.44,0,0,1,.06-.35.41.41,0,0,1,.28-.2l10-2.18a.46.46,0,0,1,.39.1.44.44,0,0,1,.16.37c-.17,3.62,1.17,10.34,1.75,13.2l.06.3c.5,2.51.84,13.33-2.74,15.71A4.39,4.39,0,0,1,291.69,279.68Zm-6.48-27.47a30.4,30.4,0,0,1,.63,9.09c-.26,1.95-1,8.63.12,12.58a7.51,7.51,0,0,0,4.27,4.61,3.69,3.69,0,0,0,3.43-.33c3-2,2.91-12,2.35-14.77l-.06-.3c-.55-2.75-1.8-9-1.78-12.83Z" fill="#231f20"/><path d="M271,126.83c-1.87-1.17-29-2-29-2s-1.83,90.27.49,129.36H256s13.55-58.39,11.22-79c0,0,14.95,58.07,15.48,80.84h15.42s2.28-53.32-3.33-76.92S271,126.83,271,126.83Z" fill="#231f20"/><path d="M298.13,256.44H282.71a.44.44,0,0,1-.44-.43c-.44-18.78-10.85-62.17-14.34-76.25.3,23.43-11.36,74-11.49,74.52a.43.43,0,0,1-.43.34H242.46a.44.44,0,0,1-.44-.42c-2.29-38.65-.51-128.48-.49-129.39a.44.44,0,0,1,.14-.31.41.41,0,0,1,.32-.12c2.78.09,27.3.88,29.21,2.08a.38.38,0,0,1,.14.14c.18.28,18.33,29,23.89,52.38s3.36,76.51,3.34,77A.43.43,0,0,1,298.13,256.44Zm-15-.88h14.57c.19-5.08,1.93-54.21-3.34-76.37-5.37-22.58-22.55-50.17-23.72-52-1.74-.79-17.95-1.57-28.25-1.89-.13,6.91-1.69,91,.48,128.46h12.78c1.11-4.83,13.34-59,11.13-78.53a.44.44,0,0,1,.86-.16C267.8,175.63,282.44,232.7,283.14,255.56Z" fill="#231f20"/><path d="M291.51,69.65q-.92-1.37-1.74-2.76a49.52,49.52,0,0,1-4.7-10.54c-1.18-3.79-1.05-8-2.24-11.68-1.59-4.93-7.11-8.86-11.91-10.22-10.06-2.85-21.22,2.89-24.29,13a29.71,29.71,0,0,0-.93,7.76q-.42,13.74-.85,27.47c-.26,8.52-1.61,16.91,3.52,24.34,4.48,6.5,12.34,10,20.17,11,11.41,1.45,24.14-2.64,30.19-12.42a23.86,23.86,0,0,0,2.63-18.75C299.56,80.46,295.2,75.22,291.51,69.65Z" fill="#fff"/><path d="M273,118.76a36.12,36.12,0,0,1-4.47-.28c-8.89-1.13-16.35-5.22-20.49-11.22-4.47-6.48-4.12-13.5-3.76-20.94.07-1.22.13-2.44.16-3.67l.86-27.47a30.13,30.13,0,0,1,.94-7.88c3.09-10.15,14.47-16.23,24.86-13.29,4.68,1.33,10.5,5.18,12.21,10.52a33.56,33.56,0,0,1,1.15,5.91,33.79,33.79,0,0,0,1.1,5.77,49.47,49.47,0,0,0,4.65,10.45c.5.84,1.06,1.74,1.73,2.74h0c.77,1.16,1.57,2.32,2.37,3.47,3,4.29,6.09,8.74,7.54,13.86a24.38,24.38,0,0,1-2.68,19.12C293.47,115,282.6,118.76,273,118.76Zm-7.29-84.58c-8.27,0-16.16,5.36-18.59,13.39a29.27,29.27,0,0,0-.91,7.64l-.85,27.46c0,1.24-.1,2.47-.16,3.7-.36,7.27-.7,14.14,3.59,20.37,4,5.79,11.23,9.73,19.85,10.83,10.25,1.31,23.42-2,29.75-12.2A23.45,23.45,0,0,0,300.92,87c-1.4-5-4.45-9.36-7.4-13.59-.81-1.16-1.62-2.32-2.4-3.49h0c-.67-1-1.24-1.92-1.75-2.77a50.24,50.24,0,0,1-4.73-10.64,34.48,34.48,0,0,1-1.14-5.93,32.35,32.35,0,0,0-1.11-5.75c-1.54-4.79-7-8.62-11.59-9.92A18.91,18.91,0,0,0,265.66,34.18Z" fill="#231f20"/><path d="M262.19,77.37s-13.1,7.37-15.64,20.06.31,41.19.31,41.19l32.42-1.35s-3.17-35.93,0-46,3.07-12.89,0-13.89S267.88,71.06,262.19,77.37Z" fill="#fff"/><path d="M246.86,139.08a.46.46,0,0,1-.45-.42c0-.28-2.83-28.7-.31-41.32,2.46-12.28,14.77-19.73,15.8-20.33,5-5.45,11.93-2.44,15.67-.82.73.32,1.37.59,1.85.75,3.44,1.12,3.51,4.23.29,14.46-3.1,9.88,0,45.47,0,45.83a.48.48,0,0,1-.11.34.45.45,0,0,1-.33.15l-32.41,1.35ZM269,74.79a8.35,8.35,0,0,0-6.49,2.89.47.47,0,0,1-.12.09c-.13.08-13,7.42-15.41,19.75-2.33,11.64-.07,37,.27,40.62l31.51-1.31c-.38-4.47-2.94-36.17.06-45.71,3.29-10.47,2.78-12.5.29-13.31-.52-.17-1.17-.45-1.92-.78C275,76.09,272,74.79,269,74.79Zm-6.83,2.58h0Z" fill="#231f20"/><path d="M262.56,73.13s1,1.46-1.3,6.5c-2.19,4.14-4.46,22.81-4.93,29.2C255.4,121.6,252.1,205,252.1,205L230,203.41s9.82-95.49,12-106.63A30.54,30.54,0,0,1,262.56,73.13Z" fill="#68e1fd"/><path d="M258.88,74.59s-10.58,3.9-14.82,7.86-22.65,38.24-22.65,38.24l12,6.35L248,109.42" fill="#68e1fd"/><path d="M237.71,121.12c-.19,0-.49-.09-.64-.63a.47.47,0,0,1,.32-.56.57.57,0,0,1,.29,0c1.07-2.62,3.51-17.64,4.88-27.08a.45.45,0,1,1,.9.13c-4.06,28-5.26,28.1-5.72,28.13Z" fill="#231f20"/><path d="M261.22,69.72l-.06,9.91s1,5.54,7,3.85a12.42,12.42,0,0,0,8-7.1l-.68-17.16a30.91,30.91,0,0,1-1-9.2c-7.33-.12-13.09-5.65-13.09-5.65s-2.52,3.78-3.61,5a14.65,14.65,0,0,0-2.27,3c-1,1.9-1,4.29-.93,6.4a41.56,41.56,0,0,0,.75,7.46C256.35,70.87,261.22,69.72,261.22,69.72Z" fill="#fff"/><path d="M266.06,84.26a5.24,5.24,0,0,1-2.83-.77,6.14,6.14,0,0,1-2.52-3.78l.06-9.45a6,6,0,0,1-3.78-.74,4.8,4.8,0,0,1-2.06-3.23,40.63,40.63,0,0,1-.75-7.54c-.05-2-.11-4.59,1-6.63A15.11,15.11,0,0,1,257.49,49c1.06-1.16,3.54-4.89,3.57-4.92a.41.41,0,0,1,.33-.2.43.43,0,0,1,.36.12c.06.05,5.73,5.41,12.79,5.52a.45.45,0,0,1,.32.14A.48.48,0,0,1,275,50a28.65,28.65,0,0,0,.81,8.31,4.79,4.79,0,0,1,.18.87c0,.11.68,17.16.68,17.16a.47.47,0,0,1,0,.17,12.8,12.8,0,0,1-8.31,7.39A8.27,8.27,0,0,1,266.06,84.26Zm-4.44-4.63A4.66,4.66,0,0,0,268.07,83a12,12,0,0,0,7.67-6.74l-.68-17.08a4.12,4.12,0,0,0-.14-.66,28.33,28.33,0,0,1-.85-8.1c-6.19-.28-11.13-4.17-12.55-5.4a55,55,0,0,1-3.36,4.6,15,15,0,0,0-2.2,2.89c-1,1.83-.92,4.14-.87,6.17a39.62,39.62,0,0,0,.74,7.38,3.91,3.91,0,0,0,1.65,2.65,5.34,5.34,0,0,0,3.64.52.49.49,0,0,1,.39.09.46.46,0,0,1,.17.36l-.06,9.91Z" fill="#231f20"/><path d="M261.28,74.59a9.54,9.54,0,0,0,6.61-2.51,6.9,6.9,0,0,0,2.2-5.38s-4.35,2.92-8.87,3Z" fill="#231f20"/><path d="M261.46,75h-.2a.44.44,0,0,1-.42-.44l-.06-4.87a.44.44,0,0,1,.43-.44c4.34-.1,8.6-2.92,8.64-2.94a.42.42,0,0,1,.42,0,.44.44,0,0,1,.26.34,7.32,7.32,0,0,1-2.32,5.75A9.78,9.78,0,0,1,261.46,75Zm.21-4.89.05,4a8.85,8.85,0,0,0,5.85-2.36,7,7,0,0,0,2.09-4.29A19.21,19.21,0,0,1,261.67,70.14Z" fill="#231f20"/><path d="M264.73,55.48s-3.18,4.76-2.43,5.59,2.88.28,2.88.28" fill="#fff"/><path d="M263.78,62a2.41,2.41,0,0,1-1.8-.6c-.87-.94,1.12-4.25,2.39-6.14a.44.44,0,0,1,.61-.12.45.45,0,0,1,.12.62c-1.51,2.25-2.66,4.61-2.46,5.06.42.46,1.82.29,2.43.13a.44.44,0,0,1,.54.32.45.45,0,0,1-.32.54A6.67,6.67,0,0,1,263.78,62Z" fill="#231f20"/><ellipse cx="260.22" cy="54.64" rx="1.03" ry="0.55" transform="translate(195.39 312.5) rotate(-87.75)" fill="#231f20"/><ellipse cx="267.77" cy="53.7" rx="1.03" ry="0.55" transform="translate(203.58 319.15) rotate(-87.75)" fill="#231f20"/><path d="M262.56,63.87l2.54-.65s.52,3.7-.91,4S262.56,63.87,262.56,63.87Z" fill="#fff"/><path d="M264,67.71a1.15,1.15,0,0,1-.71-.24c-1-.77-1.17-3.3-1.19-3.58a.44.44,0,0,1,.33-.45l2.54-.65a.44.44,0,0,1,.55.36c.09.69.49,4.13-1.25,4.53A1.24,1.24,0,0,1,264,67.71Zm-1-3.51a4.65,4.65,0,0,0,.82,2.56.24.24,0,0,0,.24,0c.62-.14.74-1.75.63-3Z" fill="#231f20"/><path d="M272.21,54.13a9.24,9.24,0,0,1,1.85-3.35,3.2,3.2,0,0,1,3.52-.86c1.27.63,1.7,2.25,1.7,3.67a15.7,15.7,0,0,1-.87,4.75,5.59,5.59,0,0,1-1.36,2.48,2.2,2.2,0,0,1-2.62.37" fill="#fff"/><path d="M275.4,61.93a2.08,2.08,0,0,1-1.22-.37.44.44,0,0,1-.12-.63.45.45,0,0,1,.63-.12,1.75,1.75,0,0,0,2.05-.33A4.92,4.92,0,0,0,278,58.2a14.71,14.71,0,0,0,.85-4.61c0-.6-.1-2.6-1.45-3.26a2.75,2.75,0,0,0-3,.77,8.94,8.94,0,0,0-1.75,3.2.46.46,0,0,1-.59.26.46.46,0,0,1-.27-.59,9.77,9.77,0,0,1,2-3.52,3.67,3.67,0,0,1,4-.94c1.77.87,2,3.15,2,4.08a15.54,15.54,0,0,1-.89,4.89,5.93,5.93,0,0,1-1.48,2.67A3,3,0,0,1,275.4,61.93Z" fill="#231f20"/><path d="M276.73,74.46s-3.29,26.35-3.29,40.27c0,16-.27,91.7-.27,91.7l36.59-1.56s-14.89-45.6-16.55-64.16c-1-11.74-2-43.38-1.49-51.72S276.73,74.46,276.73,74.46Z" fill="#68e1fd"/><polygon points="240.31 114.73 256.43 150.86 225.13 150.86 209.42 115.54 240.31 114.73" fill="#fff"/><path d="M256.43,151.32h-31.3a.47.47,0,0,1-.42-.28L209,115.73a.44.44,0,0,1,0-.43.47.47,0,0,1,.37-.22l30.88-.81a.43.43,0,0,1,.43.27l16.12,36.13a.46.46,0,0,1,0,.44A.45.45,0,0,1,256.43,151.32Zm-31-.92h30.29L240,115.19l-29.89.79Z" fill="#231f20"/><path d="M268.4,145.62c-6.58.23-13.49-1.37-19.72,1l-4.26,1.64a2.73,2.73,0,0,1,1.51-2.3,13.89,13.89,0,0,0,2.46-1.49l-3.62,1.74c-.7.33-1.73.58-2.1-.1a24.31,24.31,0,0,1,4.65-3.62,36.08,36.08,0,0,1-4,1.65c-.86.29-2,.5-2.56-.2a16.62,16.62,0,0,1,5-2.66l-3.39,1a2.75,2.75,0,0,1-1.23.17.9.9,0,0,1-.77-.85,1.25,1.25,0,0,1,.6-.83,19.43,19.43,0,0,1,7.79-3.57c-.27-.72-1.68-4.56-1.17-5.22s2.42,2.87,5.41,3.22,13.13.83,13.13.83" fill="#fff"/><path d="M244.42,148.75a.42.42,0,0,1-.24-.07.41.41,0,0,1-.21-.35,2.32,2.32,0,0,1,.37-1.42c-1,.29-1.72.1-2.07-.55a.44.44,0,0,1,.08-.54c.46-.46.94-.9,1.44-1.33l-.34.12c-1.43.49-2.46.38-3.06-.33a.49.49,0,0,1-.11-.35.46.46,0,0,1,.18-.31,10.25,10.25,0,0,1,.85-.62l-.32,0a1.34,1.34,0,0,1-1.14-1.32,1.68,1.68,0,0,1,.78-1.16,19.68,19.68,0,0,1,7.46-3.54c-1.56-4.34-1.1-4.94-.92-5.17a.68.68,0,0,1,.49-.27c.45,0,.85.35,1.52,1a7.08,7.08,0,0,0,3.81,2.32c2.94.34,13,.81,13.1.82a.46.46,0,0,1,0,.91c-.42,0-10.2-.48-13.17-.82-1.91-.23-3.37-1.64-4.34-2.58-.22-.21-.49-.47-.67-.62a16.63,16.63,0,0,0,1.26,4.58.42.42,0,0,1,0,.38.46.46,0,0,1-.31.23,18.88,18.88,0,0,0-7.6,3.48c-.19.15-.41.34-.43.5s.19.32.4.37a2.23,2.23,0,0,0,1-.16l3.4-1a.45.45,0,0,1,.57.3.46.46,0,0,1-.29.57,16.07,16.07,0,0,0-4.31,2.19,3.2,3.2,0,0,0,1.62-.2,35.82,35.82,0,0,0,4-1.63.45.45,0,0,1,.43.8,24.14,24.14,0,0,0-4.19,3.19,2.27,2.27,0,0,0,1.22-.27l3.61-1.74a.47.47,0,0,1,.58.15.45.45,0,0,1-.07.59,7.17,7.17,0,0,1-1.68,1.08c-.29.15-.58.3-.85.47a3.12,3.12,0,0,0-1.16,1.19l3.5-1.35c4.37-1.68,9.08-1.44,13.64-1.21,2.06.1,4.18.21,6.23.14a.47.47,0,0,1,.48.44.46.46,0,0,1-.44.47c-2.09.08-4.24,0-6.32-.14-4.46-.22-9.08-.46-13.26,1.15l-4.26,1.64A.41.41,0,0,1,244.42,148.75Z" fill="#231f20"/><path d="M291.23,84.7s24.25,60.76,15.25,63.83c-3.69,1.26-44.39,2.36-44.39,2.36l-1-16.18,20.39-2.79Z" fill="#68e1fd"/><path d="M289.26,131.68a.46.46,0,0,1-.46-.42l-3.41-39.12a.46.46,0,1,1,.91-.08l3.41,39.12a.45.45,0,0,1-.41.49Z" fill="#231f20"/><path d="M267.71,152.37a.46.46,0,0,1,0-.91l27.8-2a.45.45,0,0,1,.49.42.46.46,0,0,1-.42.49l-27.8,2Z" fill="#231f20"/><path d="M217.18,140.09c.19.56.43,1.12.6,1.61a7.81,7.81,0,0,0,1.79,3.16,6.86,6.86,0,0,0,3.67,1.55c1.48.25,2.95.51,4.43.79a3,3,0,0,0,2.25-.16.57.57,0,0,0,.28-.35.68.68,0,0,0-.29-.58c-1.63-1.48-4.19-1.33-6.06-2.49a13.2,13.2,0,0,0,4.72.44,2.53,2.53,0,0,0,2.09-1c-2-1.38-4.73-.88-6.92-1.89a9.51,9.51,0,0,0,5.67-.64c.31-.13.66-.51.42-.74a.52.52,0,0,0-.36-.11l-7-.43a9.2,9.2,0,0,0,3.89-.9c.64-.31,1.31-.8,1.37-1.51a.53.53,0,0,0-.09-.37c-.14-.17-.4-.15-.61-.12-.89.13-4.55.65-5.51.82a3.06,3.06,0,0,1-2.42-.25,3.27,3.27,0,0,1-.79-1.05,3.79,3.79,0,0,0-1.47,2.59A4.85,4.85,0,0,0,217.18,140.09Z" fill="#fff"/><path d="M228.81,147.79a7.36,7.36,0,0,1-1.22-.14c-1.48-.28-3-.54-4.43-.79a7.19,7.19,0,0,1-3.9-1.67,8.36,8.36,0,0,1-1.91-3.34c-.07-.21-.16-.43-.25-.65s-.24-.64-.35-1h0a5.13,5.13,0,0,1-.35-1.77,4.23,4.23,0,0,1,1.64-2.95.46.46,0,0,1,.69.14,2,2,0,0,0,2.73,1.08c.75-.14,3.14-.49,4.56-.69l1-.14a1.09,1.09,0,0,1,1,.27.92.92,0,0,1,.2.7c0,.52-.35,1.28-1.63,1.89L226,139l3.49.21a1,1,0,0,1,.64.24.67.67,0,0,1,.21.64,1.27,1.27,0,0,1-.76.85,9.69,9.69,0,0,1-1.91.62,7.52,7.52,0,0,1,3.24,1.12.46.46,0,0,1,.14.6,2.85,2.85,0,0,1-2.45,1.21l-.66.05a6,6,0,0,1,2.27,1.21,1.09,1.09,0,0,1,.43,1,1,1,0,0,1-.48.65A2.37,2.37,0,0,1,228.81,147.79Zm-11.2-7.85c.11.32.23.63.34.92s.19.47.26.68a7.58,7.58,0,0,0,1.67,3,6.51,6.51,0,0,0,3.43,1.43c1.49.25,3,.51,4.45.79a2.66,2.66,0,0,0,1.91-.09l.08-.06a1.82,1.82,0,0,0-.15-.15,7.15,7.15,0,0,0-3.12-1.36,10.52,10.52,0,0,1-2.87-1.08.46.46,0,0,1,.36-.83,12.54,12.54,0,0,0,4.56.42,2.73,2.73,0,0,0,1.43-.42,9.47,9.47,0,0,0-3.16-.8,11.51,11.51,0,0,1-3.25-.78.46.46,0,0,1,.28-.87,9.15,9.15,0,0,0,5.39-.6l-6.76-.41a.45.45,0,0,1-.43-.47.47.47,0,0,1,.45-.45,8.8,8.8,0,0,0,3.7-.86c.49-.23,1.07-.61,1.11-1.13,0,0,0,0-.18,0l-1,.14c-1.42.21-3.79.55-4.53.68a3.43,3.43,0,0,1-2.78-.34,2.64,2.64,0,0,1-.61-.69,3.16,3.16,0,0,0-.92,1.88,4.54,4.54,0,0,0,.3,1.46Z" fill="#231f20"/><path d="M261.13,135.17a.47.47,0,0,1-.46-.41.46.46,0,0,1,.41-.5l31.54-3.5a.46.46,0,0,1,.5.41.45.45,0,0,1-.4.5l-31.54,3.49Z" fill="#231f20"/><path d="M286.72,188.53a6.52,6.52,0,0,1-5-2.18c-3-3.63-2.16-15.88-2.13-16.4a.46.46,0,0,1,.46-.42H294.8a.46.46,0,0,1,0,.91H280.5c-.13,2.2-.57,12.33,1.94,15.33a5.81,5.81,0,0,0,6.2,1.53c1.75-.62,4.7-2.65,4.82-9.29a.45.45,0,0,1,.45-.44h0a.46.46,0,0,1,.45.46c-.13,7.19-3.45,9.43-5.42,10.13A6.82,6.82,0,0,1,286.72,188.53Z" fill="#231f20"/><path d="M242.18,186.24a4.66,4.66,0,0,1-3.92-2.23c-2.33-3.62-1.66-15.83-1.63-16.35a.47.47,0,0,1,.46-.43h11.3a.46.46,0,0,1,0,.92H237.52c-.1,2.22-.43,12.36,1.5,15.37a3.69,3.69,0,0,0,4.08,1.68c2.53-.72,4.08-4.27,4.15-9.48a.46.46,0,0,1,.47-.45.46.46,0,0,1,.45.46c-.12,8.13-3.41,10-4.82,10.35A4.29,4.29,0,0,1,242.18,186.24Z" fill="#231f20"/><circle cx="276.2" cy="98.05" r="2.76" fill="#231f20"/><path d="M276.2,101.25a3.2,3.2,0,1,1,3.21-3.2A3.2,3.2,0,0,1,276.2,101.25Zm0-5.52a2.32,2.32,0,1,0,2.32,2.32A2.33,2.33,0,0,0,276.2,95.73Z" fill="#231f20"/><circle cx="277.46" cy="97.24" r="2.2" fill="#231f20"/><path d="M277.46,99.88a2.64,2.64,0,1,1,2.64-2.64A2.64,2.64,0,0,1,277.46,99.88Zm0-4.4a1.76,1.76,0,1,0,1.75,1.76A1.76,1.76,0,0,0,277.46,95.48Z" fill="#231f20"/><path d="M255.18,90.46h-.05a.44.44,0,0,1-.39-.48c.07-.68,1.83-16.5,9.22-18a.45.45,0,0,1,.52.35.44.44,0,0,1-.34.52c-6.76,1.37-8.51,17.07-8.52,17.23A.45.45,0,0,1,255.18,90.46Z" fill="#231f20"/><path d="M276.73,97.09h-.05a.49.49,0,0,1-.44-.55c1.85-16.41-.48-22.84-.5-22.9A.49.49,0,0,1,276,73a.5.5,0,0,1,.64.29c.1.26,2.44,6.66.56,23.36A.5.5,0,0,1,276.73,97.09Z" fill="#231f20"/><path d="M259.83,108.49a.51.51,0,0,1-.5-.5.5.5,0,0,1,.5-.5,1.58,1.58,0,0,0,1.58-1.57v-9.7a5.71,5.71,0,0,0-5.7-5.7h-1.06a5.71,5.71,0,0,0-5.7,5.7v9.7a1.58,1.58,0,0,0,1.57,1.57.5.5,0,0,1,.5.5.5.5,0,0,1-.5.5,2.58,2.58,0,0,1-2.57-2.57v-9.7a6.71,6.71,0,0,1,6.7-6.7h1.06a6.71,6.71,0,0,1,6.7,6.7v9.7A2.58,2.58,0,0,1,259.83,108.49Z" fill="#231f20"/><rect x="250.68" y="106.48" width="1.06" height="3.08" rx="0.53" fill="#231f20"/><path d="M251.21,110a1,1,0,0,1-1-1v-2a1,1,0,0,1,2,0v2A1,1,0,0,1,251.21,110Zm0-3.08a.09.09,0,0,0-.09.09v2c0,.1.17.1.17,0v-2A.09.09,0,0,0,251.21,106.92Z" fill="#231f20"/><rect x="259.08" y="106.48" width="1.06" height="3.08" rx="0.53" fill="#231f20"/><path d="M259.61,110a1,1,0,0,1-1-1v-2a1,1,0,0,1,1.94,0v2A1,1,0,0,1,259.61,110Zm0-3.08a.09.09,0,0,0-.09.09v2c0,.1.18.1.18,0v-2A.09.09,0,0,0,259.61,106.92Z" fill="#231f20"/><path d="M277.46,99.94h-.08A2.92,2.92,0,0,1,275,98.48a3.35,3.35,0,0,1,.33-2.83.5.5,0,0,1,.68-.17.49.49,0,0,1,.17.68,2.38,2.38,0,0,0-.27,1.9c.21.46.77.76,1.66.88a.5.5,0,0,1-.07,1Z" fill="#fff"/><path d="M258.23,60.55a5.92,5.92,0,1,1,5.91-5.91A5.92,5.92,0,0,1,258.23,60.55Zm0-10.92a5,5,0,1,0,5,5A5,5,0,0,0,258.23,49.63Z" fill="#231f20"/><path d="M269.51,59.62a5.92,5.92,0,1,1,5.91-5.92A5.93,5.93,0,0,1,269.51,59.62Zm0-10.92a5,5,0,1,0,5,5A5,5,0,0,0,269.51,48.7Z" fill="#231f20"/><polygon points="218.35 114.16 221.04 118.83 234.24 118.31 231.77 113.71 218.35 114.16" fill="#231f20"/><path d="M221,119.28a.45.45,0,0,1-.38-.22L218,114.37a.44.44,0,0,1,0-.43.48.48,0,0,1,.37-.23l13.43-.44a.44.44,0,0,1,.4.23l2.47,4.6a.47.47,0,0,1,0,.43.45.45,0,0,1-.37.22l-13.2.53Zm-1.94-4.71,2.19,3.81,12.23-.48-2-3.74Z" fill="#231f20"/><path d="M225.23,111.71a2.38,2.38,0,0,0-1.58,0,1.8,1.8,0,0,0-1.15,1.67,2.72,2.72,0,0,0,.38,1.27,3.51,3.51,0,0,0,.86,1.08c1.24,1,3.93.85,3.82-1.23a3.28,3.28,0,0,0-.61-1.56A3,3,0,0,0,225.23,111.71Z" fill="#231f20"/><path d="M225.57,116.72a3.51,3.51,0,0,1-2.1-.68,3.84,3.84,0,0,1-1-1.22,3.06,3.06,0,0,1-.44-1.48,2.24,2.24,0,0,1,1.44-2.08,2.81,2.81,0,0,1,1.87,0h0a3.5,3.5,0,0,1,1.95,1.37,3.63,3.63,0,0,1,.68,1.78,2,2,0,0,1-1.08,2A2.89,2.89,0,0,1,225.57,116.72ZM224.34,112a1.57,1.57,0,0,0-.54.09,1.36,1.36,0,0,0-.86,1.25,2.35,2.35,0,0,0,.33,1.06,3,3,0,0,0,.74.95,2.61,2.61,0,0,0,2.51.28,1.13,1.13,0,0,0,.6-1.15,2.86,2.86,0,0,0-.54-1.34,2.53,2.53,0,0,0-1.49-1h0A2.28,2.28,0,0,0,224.34,112Z" fill="#231f20"/></g></svg>