<svg width="435" height="377" xmlns="http://www.w3.org/2000/svg" xmlns:xlink="http://www.w3.org/1999/xlink"><defs><path d="M6.0676 17.2742c-1.252-.5785-4.1414-1.0607-5.2008 2.1215-1.0594 3.1821-.1926 4.4357 1.0594 5.4964 1.252 1.0607 2.793 1.2536 2.793 1.2536s.8669 11.6678 3.7562 17.4535c2.8894 5.7858 10.498 11.3786 18.2029 10.8965 8.7643-.4822 15.1209-5.0143 18.7807-11.2822 3.6599-6.2678 6.2603-16.3928 6.7418-22.7571.3853-4.9179 1.1558-12.15-.9631-14.2714-2.1188-2.1215-4.334.9642-6.2602 1.6392-1.83.675-5.5861 1.2536-9.246-1.35-3.6598-2.6035-7.416-4.9178-10.3053-5.882-2.8893-.9644-5.1045-.7715-7.6086 1.832-1.8299 1.9286-2.504 4.6286-2.6004 6.4608-.0963 1.7357-.0963 6.2678-.6742 10.4142-.5778 4.1465-1.4446 8.1-1.4446 8.1s-1.83-.9642-2.0226-3.2785c-.1926-2.3143-.5778-6.1715-.8668-7.7143l-.289-1.5429-1.8298 3.5679c.0963.3857-1.4447-.8679-2.0226-1.1572z" id="a"/><path d="M12.5205 1.1571s3.3709 25.65 1.4447 28.5429c-1.83 2.7-5.2972 1.9286-5.2972 1.9286S7.5123 46.7679.9631 50.2393c-4.334 2.3143 16.2767-2.6036 16.2767-2.6036L26.293 33.268l2.4078-9.8358L29.7602 13.5 29.0861 0 12.5205 1.1571z" id="c"/><path d="M11.9649 2.4628c-1.2025 1.2534-1.6697 3.0895-1.7344 4.2458-.0648 1.1585-.0925 4.1463-.4764 6.9143-.3862 2.7681-.9296 5.372-.9296 5.372s-1.191-.6082-1.3204-2.153c-.1319-1.5424-.3585-4.0838-.5504-5.1129l-.1943-1.0314-1.2187 2.3819s-.999-.8186-1.3851-.9967c-.8372-.3839-2.7658-.7053-3.4711 1.4176-.7076 2.1228-.1295 2.9577.71 3.6653.8347.7076 1.8638.8371 1.8638.8371s.5527 7.6868 2.486 11.5417c1.9309 3.8619 6.9745 7.518 12.0643 7.2312 5.7882-.3238 9.9992-3.3208 12.4412-7.437 2.442-4.1209 4.1417-10.8433 4.4608-15.022.2498-3.2768.7354-8.0105-.6174-9.4235-1.3505-1.4129-2.8953.6452-4.1186 1.0939-1.221.4532-3.6953.807-6.1397-.8603-2.4466-1.672-4.9233-3.2467-6.8519-3.8896-.6683-.222-1.2765-.3492-1.8546-.3492-1.1008 0-2.0882.4556-3.1635 1.5748z" id="e"/><path d="M34.1208.8164s1.7935 17.791.4377 19.4546c-1.358 1.6637-3.0466.4142-3.0466.4142s-2.1175 10.8264-4.78 12.5872c-2.6602 1.7609 10.4199-1.6983 10.4199-1.6983l5.7962-9.4983 1.53-6.5389.6612-6.5712-.4445-8.9268" id="g"/></defs><g fill="none" fill-rule="evenodd"><ellipse fill="#D8ECF0" cx="218" cy="188.5" rx="168" ry="171.5"/><g transform="translate(34 151)"><path fill="#FFF" fill-rule="nonzero" d="M.1926 157.95h184.2439l50.082 57.7607H34.1904z"/><path d="M131.4652 187.2643l-24.5595 17.8393c-.0963.0964-.2889.0964-.3852 0L69.922 183.407l25.8115-16.1035c.0963-.0965.1926-.0965.3853 0l35.3463 19.3821c.1926.0964.2889.3857 0 .5786z" fill="#E0F0F7" fill-rule="nonzero"/><path d="M184.4365 181.0929l-27.4488 14.175h-.0963l-37.2725-19.2858c-.0964 0-.0964-.0964 0-.0964l31.6864-10.2214 33.1312 15.4286c0-.0965 0 0 0 0z" fill="#D4ECF5" fill-rule="nonzero"/><path d="M183.5697 180.4179l-26.6783 13.6928c-.0963.0964-.289.0964-.3853 0l-36.4057-18.8036c-.289-.1928-.289-.675.0963-.7714l30.916-9.9321 32.457 15.1393c.289.0964.289.5785 0 .675z" fill="#E0F0F7" fill-rule="nonzero"/><path d="M52.1045 143.6786s1.6373-63.9322 20.1291-75.7929c22.8258-14.6571 60.58.8679 73.871 14.4643 23.7888 24.4929 22.0552 63.1607 20.2253 77.2393l-109.6024.0964-4.623-16.0071z" fill="#F2F2F2" fill-rule="nonzero"/><path d="M91.4959 62.3893c-25.6189-1.9286-52.0082 20.4428-64.625 45.3214-12.6168 24.8786-7.5123 64.6072 18.4918 74.1536 14.2541 5.2071 30.7234 4.5321 30.7234 4.5321s-.9631-5.4964 4.334-13.5c0 0-31.6865-6.8464-23.5-29.4107" fill="#F2F2F2" fill-rule="nonzero"/><path fill="#37C0CD" fill-rule="nonzero" d="M82.8279 67.3071L92.17 60.75l17.8176 4.5321 6.5492 1.7358-13.7726 56.7964-3.7561 17.8393-1.6373 8.0035z"/><path d="M90.1475 60.075s-.5778 1.35-1.7336 4.5321l-3.5635 1.4465s.4816 2.4107 4.623 4.3393c3.5635 1.6392 6.1639 1.8321 10.6905 1.7357 3.082-.0965 6.6455-1.9286 7.3197-2.7.4816-.675-1.541-3.7607-1.6373-5.1107-.0963-1.7358 1.4447-4.05 2.793-6.3643 1.4447-2.3143-18.4918 2.1214-18.4918 2.1214z" fill="#0880C4" fill-rule="nonzero"/><path d="M84.8504 151.9714L101.416 179.55l5.0082 3.6643-.7705-5.3036-17.1435-28.1571c-.2889-.5786-1.0594-.675-1.6372-.3857l-1.6373 1.0607c-.4816.2893-.6742.9643-.3853 1.5428z" fill="#FFCE43" fill-rule="nonzero"/><path d="M80.0348 172.8964l8.2828 2.6036c.289.0964.9631-.5786 1.0594-.9643.578-1.7357 2.2152-6.075 6.6455-2.7964 0 0 1.541-3.4714 4.4304-.5786 3.1782 3.0857 6.5491 4.8214 4.334 7.0393-1.3484 1.35-3.8525-.8679-3.8525-.8679s4.5267 2.5072 3.9488 3.8572c-.5779 1.35-1.83 1.5428-2.6004 1.1571-1.541-.7714-2.4078-1.2535-2.4078-1.2535s1.1557 1.8321.289 2.5071c-.9632.675-1.6374.2893-2.7931-.4821-1.1557-.7715-1.4447-1.0608-2.8893-.8679-.9632.0964-1.3484 1.9286-4.623 2.025-1.4447.0964-2.793-1.35-3.9488-1.0607-2.0225.4821-3.2746 1.35-5.0082 2.025-2.504.9643-5.297 1.1571-5.297 1.1571s-.4816-10.6071 4.4302-13.5z" fill="#0880C4" fill-rule="nonzero"/><path d="M95.9262 72.1286l3.1783 5.0143c.0963.0964.0963.1928 0 .2892 0 0-5.3934 17.7429-5.7787 20.3465-.6742 3.8571-.7705 13.3071 0 25.5535.8668 12.5358 4.1414 25.3608 4.1414 25.3608l1.4447-7.425s6.164-26.6143 6.5492-28.6393c.6741-2.8929 1.7336-12.3429 1.6373-15.525-.0964-4.5322-5.5861-20.25-5.5861-20.25v-.1929s.6742-1.4464.8668-2.025c.289-.7714 1.252-3.2786.9631-3.1821-.8668.2893-2.2152.5785-3.2746.5785-1.3483.0965-3.082.0965-4.1414.0965z" fill="#4FDBD4" fill-rule="nonzero"/><path d="M62.6025 140.9786c-1.9263 0-5.2009-.2893-7.9939-2.1215-3.4672-2.1214-1.541-18.225-.1926-27.5785l2.8893.3857c-1.6373 10.7036-2.4078 23.1428-1.0594 24.6857 3.2746 2.025 7.6086 1.5429 7.705 1.5429l.3852 2.8928c-.1927.0964-.8668.1929-1.7336.1929z" fill="#FFF" fill-rule="nonzero"/><path d="M67.8033 139.1464c.0963 1.4465-.9631 2.6036-2.3115 2.7965-1.3484.1928-2.5041-.8679-2.5041-2.3143-.0963-1.4465.9631-2.6036 2.3115-2.7965 1.3483-.0964 2.504.9643 2.504 2.3143z" fill="#676868" fill-rule="nonzero"/><g transform="translate(73.1967 13.2936)"><mask id="b" fill="#fff"><use xlink:href="#a"/></mask><path d="M41.3176 8.6921s.7705 16.0071.8668 17.4536c.1926 1.4464.3853 4.725-.1926 6.4607-.5779 1.7357-1.1557 2.2178-2.1188 2.5071-.9632.2893-1.83.1929-1.83.1929s-1.0594 6.3643-2.2151 9.0643c-1.1558 2.7-2.793 6.1714-3.5636 7.3285-.7704 1.1572-1.6373 2.7-1.6373 2.7l13.6763 2.5072 11.75-23.0464 1.9262-16.3929-4.334-8.6786-2.6967-5.8821-9.4386 2.5071-.1926 3.2786z" fill="#0C80C3" fill-rule="nonzero" mask="url(#b)"/></g><path d="M85.7172 47.925s-10.6906 3.2786-11.6537-14.6571c-.8668-14.6572 2.6967-23.5286 5.875-24.3 0 0-.4815-4.1465 2.2152-3.5679 2.793.5786 5.9713-.9643 10.3053-1.9286C101.127 1.543 112.5881 0 117.789.2893c5.297.2893 10.4016 1.1571 13.1946 5.1107 2.2152 3.1821 3.1783 8.6786.6742 12.825-1.9262 3.0857-11.1721 7.425-11.1721 7.425l-24.2705-5.0143-2.4078 21.3107-5.4898 2.4107-4.7192-8.3892 2.1188 11.9571z" fill="#073447" fill-rule="nonzero"/><path d="M82.4426 30.5679c-1.252-.5786-4.1414-1.0608-5.2008 2.1214-1.0594 3.1821-.1926 4.4357 1.0594 5.4964 1.252 1.0607 2.793 1.2536 2.793 1.2536s.8669 11.6678 3.7562 17.4536c2.8894 5.7857 10.498 11.3785 18.2029 10.8964 8.7643-.4822 15.1209-5.0143 18.7807-11.2822 3.6599-6.2678 6.2603-16.3928 6.7418-22.7571.3853-4.9179 1.1558-12.15-.963-14.2714-2.0226-2.1215-4.3341.9643-6.2603 1.6393-1.9263.675-5.5861 1.2535-9.246-1.35-3.6598-2.6036-7.416-4.9179-10.3053-5.8822-2.8893-.9643-5.1045-.7714-7.6086 1.8322-1.8299 1.9285-2.504 4.6285-2.6004 6.4607-.0963 1.7357-.0963 6.2678-.6742 10.4143-.5778 4.1464-1.4446 8.1-1.4446 8.1s-1.83-.9643-2.0226-3.2786c-.1926-2.3143-.5778-6.1714-.8668-7.7143l-.289-1.5429-1.8298 3.5679c.0963.3857-1.4447-.8679-2.0226-1.1571z" fill="#52A5D3" fill-rule="nonzero"/><path d="M95.7336 31.9179c1.9262-1.9286 5.0082-2.4108 7.6086-1.4465 2.6004.9643 4.5267 3.1822 5.3935 5.7857-2.3115.7715-4.8156 1.5429-7.3197 1.35-2.5041-.1928-5.0082-1.4464-6.0676-3.7607-.1927-.2893-.289-.675-.1927-.9643.0963-.3857.3853-.675.578-.9642z" fill="#C1E8FA" fill-rule="nonzero"/><g transform="translate(105.9426 17.3571)"><mask id="d" fill="#fff"><use xlink:href="#c"/></mask><path d="M-23.5 13.2107c-1.252-.5786-4.1414-1.0607-5.2008 2.1214-1.0594 3.1822-.1926 4.4358 1.0594 5.4965 1.252 1.0607 2.793 1.2535 2.793 1.2535s.8668 11.6679 3.7562 17.4536c2.8893 5.7857 10.498 11.3786 18.2029 10.8964C5.875 49.95 12.2316 45.418 15.8914 39.15c3.6598-6.2679 6.2602-16.3929 6.7418-22.7571.3852-4.9179 1.1557-12.15-.9631-14.2715-2.0226-2.1214-4.334.9643-6.2603 1.6393-1.9262.675-5.586 1.2536-9.2459-1.35C2.5041-.1929-1.252-2.507-4.1414-3.4714c-2.8893-.9643-5.1045-.7715-7.6086 1.8321-1.83 1.9286-2.5041 4.6286-2.6004 6.4607-.0963 1.7357-.0963 6.2679-.6742 10.4143-.5779 4.1464-1.4447 8.1-1.4447 8.1s-1.8299-.9643-2.0225-3.2786c-.1926-2.3142-.5779-6.1714-.8668-7.7142l-.289-1.5429-1.8299 3.5679c.0964.3857-1.4446-.8679-2.0225-1.1572z" fill="#0880C4" fill-rule="nonzero" mask="url(#d)"/></g><g fill="#0880C4" fill-rule="nonzero"><path d="M158.8176 155.4429c1.9263-1.8322 5.2008-1.8322 5.4898 1.1571.0963 1.0607-1.541 4.5321-3.082 7.1357-1.4447 2.4107-2.6967 5.0143-4.7193 5.6893-3.082 1.0607-2.9856-2.3143-2.2151-4.725.0963-.1929-.7705 1.35-.8668 1.4464-1.3484 2.025-3.2746 2.7965-4.623 2.025-1.541-.8678 1.3484-8.775 2.8894-11.5714 2.793-5.0143 5.2008-2.2179 5.4897-.7714 0 .0964-.1926 2.2178-.0963 2.1214.289-.2893.4816-.9643 1.1558-1.9286l.5778-.5785z"/><path d="M159.1066 166.725s-.289 2.6036 2.4077 2.025c2.1189-.3857 4.8156-3.1821 5.6824-4.725.1926-.3857.4816-1.4464.289-1.8321-.3853-.7715-1.252-1.5429-2.9857-1.1572-2.6004.4822-5.2971 5.4-5.2971 5.4M150.4385 161.1321s-4.4303-1.8321-4.9119.3858c-.2889 1.5428 3.4673 3.375 3.4673 3.375l1.4446-3.7608z"/></g><path d="M78.0123 67.9821c-1.9262 2.7-2.9857 8.3893-2.793 12.3429.1926 4.4357 2.0225 9.6429 4.045 14.7536 3.4673 8.775 14.4468 34.7143 14.4468 34.7143l-8.957-67.4036c-.0963.0964-4.8156 2.7964-6.7418 5.5928z" fill="#FFF" fill-rule="nonzero"/><path d="M70.3074 92.0893c0-.2893-.3853-8.6786.963-15.4286 1.0595-5.2071 3.9489-9.7393 7.8013-12.15 2.8894-1.8321 6.5492-2.1214 10.1127-2.1214 0 0-.0963 1.7357-.3852 2.1214-.3853.4822-4.2377 0-5.9713.675-3.6599 1.2536-6.5492 4.4357-8.1865 8.2929-3.371 8.2928-1.9262 18.9964-1.9262 19.1893l-2.4078-.5786z" fill="#676868" fill-rule="nonzero"/><path d="M78.4939 141.3643c-1.4447 0-2.4078-.1929-2.5041-.1929l.4815-2.8928s4.4303.7714 7.8012-1.2536c1.3484-1.4464 1.1558-13.9821 0-24.6857l2.8894-.2893c.9631 9.45 2.0225 25.5536-1.4447 27.4821-2.504 1.5429-5.2971 1.8322-7.2233 1.8322z" fill="#FFF" fill-rule="nonzero"/><path d="M84.3689 112.4357s-.0964-4.3393-1.7337-8.6786c-2.1188-5.5928-5.875-8.6785-10.9795-9.2571-.3852 0-.8668-.0964-1.252 0-5.2008.2893-8.8607 3.1821-11.1721 8.6786-1.7336 4.3393-1.9263 8.5821-1.9263 8.6785l-2.8893-.0964c.1926-6.6536 3.6598-19.4786 15.795-20.1536.578 0 1.1558 0 1.7337.0965 15.0246 1.5428 15.3135 20.6357 15.3135 20.8285l-2.8893-.0964zM71.752 139.3393c-.0963 1.4464.9632 2.7 2.4078 2.7964 1.4447.0964 2.6968-.8678 2.793-2.3143.0964-1.4464-.963-2.7-2.4077-2.7964-1.4447-.1929-2.6967.8679-2.793 2.3143z" fill="#676868" fill-rule="nonzero"/><circle fill="#676868" fill-rule="nonzero" cx="133.5" cy="110.5" r="7.5"/><circle fill="#BFC7CB" fill-rule="nonzero" cx="133" cy="110" r="3"/><path d="M100.3808 135.8953c-.0952.192-.3808.096-.3808-.096l9.329-40.0362L116.4685 66s5.6165 2.5923 7.6155 5.7606c2.3799 3.6484-.3807 15.8417-2.5702 21.3142-2.0943 5.1846-17.6109 35.8118-21.133 42.8205z" fill="#FFF" fill-rule="nonzero"/><path d="M132.5985 105c0-.0978.3905-8.8998-1.7572-18.2885-3.905-16.7237-18.646-20.2445-18.8413-20.3423L114.7335 65c.6833.1956 13.7648 3.423 18.3531 20.1467 2.5382 9.5844 1.8549 19.4621 1.7572 19.8533h-2.2453z" fill="#676868" fill-rule="nonzero"/></g><path d="M319.1887 137.7058H115.8762c-5.3787 0-9.74-4.4836-9.74-10.013V50.562c0-5.5318 4.3613-10.0131 9.74-10.0131h203.3125c5.381 0 9.74 4.4813 9.74 10.0131v77.1306c0 5.5295-4.359 10.0131-9.74 10.0131" fill="#F4F5F6"/><path d="M319.1887 137.2058c5.1008 0 9.24-4.256 9.24-9.513V50.562c0-5.2587-4.1384-9.5131-9.24-9.5131H115.8762c-5.1002 0-9.24 4.2552-9.24 9.5131v77.1306c0 5.2564 4.1406 9.5131 9.24 9.5131h203.3125zm0 1H115.8762c-5.658 0-10.24-4.7105-10.24-10.513V50.562c0-5.804 4.5813-10.5131 10.24-10.5131h203.3125c5.6602 0 10.24 4.7082 10.24 10.5131v77.1306c0 5.8033-4.5806 10.5131-10.24 10.5131z" fill="#3D83C4" fill-rule="nonzero"/><path d="M219.9912 71.621c0 .8139-.1123 1.4682-.3369 1.963-.2246.4948-.5632.8545-1.0156 1.079-.4525.2247-1.0889.337-1.9092.337h-2.0606v-6.7578h2.041c.7976 0 1.4315.1155 1.902.3467.4703.231.8178.5916 1.0424 1.0815.2246.49.337 1.1401.337 1.9507zm-1.4209-.0097c0-.5892-.0578-1.0262-.1733-1.311-.1156-.2848-.3117-.4891-.5884-.6128-.2767-.1237-.6869-.1855-1.2305-.1855h-.5273v4.2382h.5273c.5436 0 .953-.0626 1.228-.188.2751-.1253.4712-.3344.5884-.6274.1172-.293.1758-.7308.1758-1.3135zm7.2022.8399c0 .8528-.197 1.516-.5909 1.9897-.3938.4737-1.014.7105-1.8603.7105-1.6406 0-2.461-.9-2.461-2.7002 0-.866.197-1.5357.5909-2.0093s1.0172-.7105 1.87-.7105c.8464 0 1.4666.2369 1.8604.7105.394.4736.5909 1.1434.5909 2.0093zm-1.3037 0c0-.5632-.088-.9741-.2637-1.233-.1758-.2587-.4704-.3881-.8838-.3881-.4102 0-.7064.1326-.8887.398-.1823.2652-.2734.673-.2734 1.223 0 .547.0903.9498.271 1.2086.1806.2588.4777.3882.891.3882.407 0 .7-.1278.879-.3833.179-.2556.2685-.66.2685-1.2134zm6.6943 1.8164c-.1953.2897-.4525.5094-.7715.6592-.319.1497-.7227.2246-1.211.2246-.8268 0-1.4518-.2255-1.875-.6763-.4231-.4509-.6347-1.119-.6347-2.0044 0-.8626.205-1.5348.6152-2.0166s1.0254-.7227 1.8457-.7227c.4395 0 .831.0717 1.1744.2149.3434.1432.6046.3646.7836.664l-.9375.669c-.1139-.153-.2474-.2661-.4003-.3394-.153-.0732-.35-.1098-.5909-.1098-.4297 0-.7356.1318-.918.3955-.1822.2637-.2734.6722-.2734 1.2256s.0936.9578.2808 1.2134c.1872.2555.507.3833.9595.3833.1953 0 .3743-.0277.537-.083.1628-.0554.3175-.1775.464-.3663l.952.669zm3.7695.7324c-.3385.101-.695.1514-1.0693.1514-.5925 0-1.0189-.1335-1.2793-.4004-.2604-.267-.3906-.6999-.3906-1.2989V70.879h-.6495v-1.001h.6495v-1.4258h1.2597v1.4258h1.1914v1.001h-1.1914v2.4121c0 .319.0497.5355.149.6494.0992.114.24.171.4223.171.2311 0 .4606-.0473.6885-.1417L234.9326 75zm5.2738-2.5488c0 .8528-.1969 1.516-.5908 1.9897-.3939.4737-1.014.7105-1.8603.7105-1.6407 0-2.461-.9-2.461-2.7002 0-.866.197-1.5357.5909-2.0093.3938-.4736 1.0172-.7105 1.87-.7105.8464 0 1.4665.2369 1.8604.7105.394.4736.5908 1.1434.5908 2.0093zm-1.3037 0c0-.5632-.0879-.9741-.2636-1.233-.1758-.2587-.4704-.3881-.8838-.3881-.4102 0-.7064.1326-.8887.398-.1823.2652-.2734.673-.2734 1.223 0 .547.0903.9498.271 1.2086.1806.2588.4777.3882.891.3882.407 0 .7-.1278.879-.3833.179-.2556.2685-.66.2685-1.2134zm5.5518-1.3428c-.1302-.0651-.3027-.0977-.5176-.0977-.2344 0-.4565.0562-.6665.1685-.21.1123-.4256.2759-.647.4907V75h-1.2597v-5.122h1.2597v.7324c.2149-.2344.446-.4281.6934-.5811.2474-.153.524-.2295.83-.2295.2605 0 .446.0342.5567.1025l-.249 1.2061zM250.89 75v-.5322c-.498.4557-1.0319.6836-1.6015.6836-.5664 0-.9945-.149-1.2842-.4468-.2897-.2979-.4346-.6795-.4346-1.145 0-.3646.074-.6657.2222-.9033.1481-.2377.3678-.424.6592-.5591.2913-.1351.7104-.2303 1.2573-.2857l1.0791-.1025v-.2295c0-.2865-.0863-.4826-.2588-.5884-.1725-.1058-.4248-.1587-.7568-.1587-.2735 0-.5086.0456-.7056.1367-.197.0912-.3426.2214-.437.3907l-.9814-.63c.1725-.2896.4427-.5118.8105-.6664.3678-.1546.8122-.232 1.333-.232.7975 0 1.3729.1392 1.726.4175.3533.2783.5299.7349.5299 1.3697V75H250.89zm-.1025-2.378l-.6396.0587c-.4525.039-.7789.1253-.979.2588-.2002.1334-.3003.3336-.3003.6005 0 .2344.065.3947.1953.481.1302.0863.3027.1294.5175.1294.153 0 .3394-.048.5591-.144.2198-.096.4354-.232.647-.4078v-.9765zm6.5527.918c0 .3386-.0854.6283-.2563.8692-.171.2409-.4134.4248-.7275.5517-.3142.127-.673.1905-1.0767.1905-1.071 0-1.8001-.2979-2.1875-.8936l.9375-.6592c.153.2084.3296.3475.5298.4175.2002.07.4142.105.642.105.599 0 .8985-.1742.8985-.5225 0-.153-.0846-.271-.2539-.354-.1693-.083-.4346-.1684-.7959-.2563-.6803-.1498-1.1589-.3613-1.4355-.6348-.2767-.2734-.415-.6282-.415-1.0644 0-.4525.1733-.8252.52-1.1182.3466-.293.8569-.4395 1.5307-.4395.459 0 .8634.0733 1.2134.2198.35.1465.6193.3662.808.6592l-.9423.6689c-.2246-.345-.5908-.5176-1.0986-.5176-.2605 0-.4574.0448-.5909.1343-.1334.0895-.2002.2043-.2002.3442 0 .1335.0603.2401.1807.3199.1205.0797.358.1635.7129.2514.5827.1433.9985.2857 1.2476.4273.249.1416.4378.3174.5664.5273.1285.21.1928.468.1928.774zm5.0098 0c0 .3386-.0854.6283-.2563.8692-.171.2409-.4135.4248-.7276.5517-.3141.127-.673.1905-1.0766.1905-1.071 0-1.8002-.2979-2.1875-.8936l.9375-.6592c.153.2084.3295.3475.5297.4175.2002.07.4143.105.6421.105.599 0 .8985-.1742.8985-.5225 0-.153-.0847-.271-.254-.354-.1692-.083-.4345-.1684-.7958-.2563-.6804-.1498-1.1589-.3613-1.4356-.6348-.2767-.2734-.415-.6282-.415-1.0644 0-.4525.1733-.8252.52-1.1182.3467-.293.857-.4395 1.5308-.4395.459 0 .8634.0733 1.2133.2198.35.1465.6193.3662.8081.6592l-.9423.6689c-.2246-.345-.5909-.5176-1.0987-.5176-.2604 0-.4573.0448-.5908.1343s-.2002.2043-.2002.3442c0 .1335.0602.2401.1807.3199.1204.0797.358.1635.7129.2514.5827.1433.9985.2857 1.2475.4273s.4379.3174.5664.5273c.1286.21.1929.468.1929.774zm2.4316-5.0586c0 .2377-.0585.4037-.1757.498-.1172.0945-.2963.1417-.5371.1417-.267 0-.4485-.0553-.5445-.166-.096-.1107-.144-.2686-.144-.4737 0-.2278.052-.3914.1562-.4907.1042-.0993.2816-.1489.5323-.1489.2539 0 .4361.048.5468.144.1107.096.166.2613.166.4956zM263.4486 75v-5.122h1.2598V75h-1.2598zm7.2022-.0977c0 .6836-.21 1.1923-.6299 1.526-.42.3336-1.0937.5004-2.0215.5004-.765 0-1.4339-.1465-2.0068-.4394l.371-1.0303c.5307.2474 1.076.371 1.6358.371.5209 0 .883-.0748 1.0864-.2245.2035-.1498.3052-.402.3052-.7569v-.4199c-.4167.3809-.9196.5713-1.5088.5713-.625 0-1.1165-.2246-1.4746-.6738-.358-.4492-.537-1.0954-.537-1.9385 0-.5274.0837-.992.2514-1.394.1676-.402.4134-.713.7373-.9327.3239-.2197.7153-.3296 1.1743-.3296.2702 0 .5404.0595.8105.1783.2702.1188.4965.2693.6788.4516l.166-.4834h.9619v5.0244zm-1.2598-3.6035c-.345-.306-.721-.459-1.128-.459-.3059 0-.5647.14-.7763.42-.2116.28-.3174.6494-.3174 1.1084 0 .5208.0936.905.2808 1.1523.1872.2474.4305.3711.73.3711.4167 0 .8203-.1676 1.211-.503v-2.0898zM275.3725 75v-2.8223c0-.5338-.048-.8903-.144-1.0693-.0961-.179-.2776-.2686-.5445-.2686-.3744 0-.8252.2474-1.3526.7422V75h-1.2597v-5.122h1.2597v.664c.267-.267.5518-.4688.8545-.6055.3028-.1367.599-.205.8887-.205.5241 0 .9147.1432 1.1719.4296.2572.2865.3857.7601.3857 1.421V75h-1.2597zm3.6816-2.2314c.0228.4557.1335.7828.332.9814.1986.1986.5111.2979.9375.2979.2474 0 .4647-.031.6519-.0928.1872-.0619.3507-.1807.4907-.3565l.9375.669c-.205.2962-.4712.5176-.7983.664-.3272.1465-.774.2198-1.3404.2198-.843 0-1.4721-.2214-1.8872-.6641-.415-.4427-.6225-1.1116-.6225-2.0068 0-1.8327.8203-2.749 2.461-2.749.729 0 1.285.2058 1.6674.6176.3825.4118.5737 1.0116.5737 1.7993v.6202h-3.4033zm2.1533-.8692c0-.778-.3401-1.167-1.0205-1.167-.2246 0-.4085.0383-.5517.1148-.1433.0765-.258.1904-.3443.3418-.0862.1513-.1538.3881-.2026.7104h2.1191zM286.9594 75v-.498c-.2344.1985-.4818.3564-.7422.4736-.2604.1172-.5566.1758-.8887.1758-.6445 0-1.1377-.2328-1.4795-.6983-.3418-.4655-.5127-1.123-.5127-1.9726 0-.8692.188-1.5446.564-2.0264.376-.4818.9041-.7227 1.5845-.7227.2409 0 .4882.0497.7422.149.2539.0993.4638.2254.6298.3784v-2.5293h1.2598V75h-1.1572zm-.1026-3.7012c-.1334-.1204-.2986-.227-.4956-.3198-.197-.0928-.398-.1392-.603-.1392-.3385 0-.6103.1457-.8154.437-.2051.2914-.3076.686-.3076 1.1841 0 .4916.0838.8773.2514 1.1573.1677.28.4273.4199.7788.4199.2084 0 .4208-.048.6372-.144.2165-.096.4012-.214.5542-.354v-2.2413z" fill="#919192"/><path d="M187.1883 123.2566l-61.9608.378c-1.2583.0091-2.2861-1.028-2.2952-2.314l-.332-56.5426c-.009-1.286 1.0075-2.3346 2.268-2.3438l61.963-.3757c1.2583-.0092 2.2862 1.0302 2.293 2.3139l.3343 56.5403c.0068 1.2883-1.0075 2.337-2.2703 2.3439" fill="#F4F5F6"/><path fill="#BFBEBE" d="M290.9581 96.206l-76.606.4679-.061-10.2834 76.6083-.4679zM312.055 111.1142l-97.615.5946-.0362-6.2572 97.615-.5946z"/><path d="M130.4676 115.4152c1.78-5.0472 4.0865-9.145 7.0707-11.0947 14.7538-9.638 39.1988.5785 47.7628 9.5552a40.2125 40.2125 0 0 1 2.3042 2.6296" fill="#E3E3E4"/><path d="M148.0083 100.642c-8.6205 0-18.7184 4.9458-26.7492 12.4475l-2.2433 2.648 19.7282-.1198" fill="#E3E3E4"/><path fill="#39C0CD" d="M144.43 103.9347l6.0316 2.1802 5.2274.4563 3.6212-1.4703 2.6883-2.5305 4.2515 1.1569"/><path d="M149.1509 99.1115s-.3208 1.15-1.0301 3.2865l-2.119 1.2191 9.7003 3.4685 4.8908-1.1615 1.5474-3.5838s-1.8298-3.0974-.9442-4.6047c.8855-1.505-12.0452 1.376-12.0452 1.376" fill="#1080C4"/><path d="M157.5626 106.271l2.3878 6.7987c.1424.4102.6958.4517.8946.0645l4.5836-8.9351c.1446-.2812.0022-.6223-.2914-.7099-.9466-.288-2.7809-.8204-3.1469-.7605-.2326.0369-.6596.4909-1.1679.8665-.7906.5877-1.588 1.392-3.0045 2.0535-.2282.1083-.3411.3803-.2553.6223M144.024 103.9008s5.4172 7.133 7.0798 10.0668c.1808.3204.6484.2466.732-.113l1.7484-7.6214s-1.4864-.4564-1.8365-.613c-1.1815-.5325-3.0633-1.2377-3.628-3.222 0 0-1.8457.5508-4.0957 1.5026" fill="#04AEAE"/><path d="M159.1401 115.944l-2.5527-6.7434a.2407.2407 0 0 1 .0023-.106s.4292-.968.5896-1.3551c.2055-.491.8855-2.277.7025-2.2102-.5602.2074-1.1814.3319-2.2138.5163-.7387.1336-1.7982-.0047-2.3065.0484-.174.016-.1468.258-.0565.4079l1.683 2.8232a.2313.2313 0 0 1 .0271.189s-1.0007 3.344-1.9224 6.3032" fill="#063447"/><g transform="translate(136 68)"><mask id="f" fill="#fff"><use xlink:href="#e"/></mask><path d="M27.49 6.401s.4926 10.5542.5944 11.5255c.104.9712.2312 3.145-.1503 4.2966-.3839 1.1493-.74 1.4569-1.4037 1.6627-.666.2012-1.228.0995-1.228.0995s-.7122 4.1925-1.4776 5.9824c-.7655 1.7899-1.864 4.0654-2.3727 4.8308-.511.7677-1.0984 1.7668-1.0984 1.7668l9.0742 1.6557 7.784-15.2116L38.509 12.196l-2.8675-5.7234-1.7644-3.9081-6.26 1.665-.1271 2.1714z" fill="#1080C4" mask="url(#f)"/></g><g><path d="M142.5329 90.7635s-4.9633 2.7636-5.8516-9.259c-.893-12.025 2.92-18.9152 5.0225-19.4345 0 0-.196-1.8518 1.615-1.4382 1.8108.4136 4.8903.4958 4.8903.4958s16.0743-1.9434 19.5046-1.746c3.4326.1974 7.6374 1.3935 8.9016 4.2276.804 1.8095-.1162 7.1558-2.1297 8.406-2.0113 1.2502-7.5053 4.4227-7.5053 4.4227l-15.858-3.3746-1.5761 14.3256-3.551 1.6356-3.0956-5.6447-.3667 7.3837z" fill="#063447"/><path d="M142.1814 79.679c-.8222-.3901-2.7242-.7168-3.4212 1.4405-.6947 2.1573-.1253 3.008.7016 3.7248.8222.719 1.8359.8507 1.8359.8507s.5443 7.8114 2.4486 11.7312c1.902 3.9221 6.8697 7.6375 11.8831 7.346 5.7013-.3313 9.8514-3.3745 12.2545-7.5575 2.4053-4.1854 4.0795-11.0192 4.3938-15.2656.246-3.33.722-8.1404-.6082-9.5763-1.3325-1.4382-2.8517.6557-4.0544 1.1116-1.2027.4606-3.6422.8201-6.0498-.8766-2.4099-1.6967-4.8494-3.297-6.7513-3.9503-1.911-.6557-3.3256-.4865-4.9405 1.2455-1.1867 1.2737-1.6468 3.1396-1.7083 4.3146-.0615 1.1773-.0912 4.2159-.4693 7.0265-.3804 2.8106-.9156 5.459-.9156 5.459s-1.173-.618-1.3006-2.1878c-.1276-1.5675-.3508-4.1501-.5422-5.1959l-.1913-1.048-1.2004 2.4204s-.9817-.8319-1.3644-1.0128" fill="#52A5D3"/><path d="M150.8409 80.6129c1.2619-1.2902 3.2845-1.6333 4.9519-1.0011 1.665.6368 2.9474 2.1526 3.5123 3.8892-1.5352.5405-3.1342 1.0246-4.7515.8954-1.615-.1246-3.2708-.9894-3.9496-2.5075-.0934-.2115-.1686-.4465-.1276-.6768.041-.2373.2005-.4324.3645-.5992" fill="#C2E8FA"/></g><g transform="translate(133 72)"><mask id="h" fill="#fff"><use xlink:href="#g"/></mask><path d="M11.0872 8.7762c-.8063-.3841-2.6714-.7058-3.3549 1.4183-.6812 2.1241-.1228 2.9617.688 3.6675.8063.708 1.8003.8376 1.8003.8376s.5338 7.6911 2.4011 11.5506c1.8651 3.8618 6.7366 7.52 11.6528 7.233 5.5908-.3262 9.6604-3.3226 12.0169-7.4412C38.65 21.921 40.2918 15.1924 40.6 11.0113c.2413-3.2787.708-8.015-.5963-9.4288-1.3067-1.4161-2.7965.6455-3.9759 1.0944-1.1793.4535-3.5715.8075-5.9325-.863C27.7322.1432 25.34-1.4326 23.475-2.0758c-1.874-.6456-3.2611-.479-4.8447 1.2263-1.1638 1.2541-1.615 3.0913-1.6753 4.2482-.0603 1.1593-.0893 4.151-.46 6.9184-.373 2.7673-.898 5.375-.898 5.375s-1.1503-.6085-1.2754-2.1542c-.125-1.5433-.344-4.0862-.5316-5.1159l-.1876-1.032-1.1771 2.3833s-.9627-.819-1.338-.9972" fill="#1080C4" mask="url(#h)"/><path fill="#3D83C4" d="M4.3617 50.1239l.9472 3.0483h3.0635l-2.479 1.88.945 3.046-2.4767-1.88-2.479 1.88.945-3.046-2.4768-1.88h3.0635zM14.312 50.1239l.9473 3.0483h3.0635l-2.4768 1.88.945 3.046-2.479-1.88-2.4767 1.88.945-3.046-2.479-1.88h3.0635zM24.2645 50.1239l.9472 3.0483h3.0635l-2.479 1.88.945 3.046-2.4767-1.88-2.479 1.88.945-3.046-2.4767-1.88h3.0634z"/><path d="M33.4149 53.3722h-2.6142l2.115 1.6055-.8018 2.5842 2.101-1.5948 2.1033 1.5952-.802-2.5846 2.1151-1.6055h-2.6165l-.8-2.5743-.7999 2.5743zm.8-3.9223l1.0945 3.5223h3.5104l-2.8384 2.1546 1.0881 3.5073-2.8546-2.1649-2.8526 2.1654 1.0883-3.5078-2.8385-2.1546h3.5082L34.215 49.45zM43.3673 53.3722h-2.6165l2.115 1.6054-.8 2.5847 2.1015-1.5952 2.101 1.5948-.8018-2.5843 2.1168-1.6054h-2.616l-.8-2.5743-.8 2.5743zm.8-3.9223l1.0945 3.5223h3.5109l-2.8411 2.1547 1.0882 3.5077-2.8525-2.1653-2.852 2.1648 1.0856-3.5072-2.8386-2.1547h3.5104l1.0946-3.5223z" fill="#3D83C4" fill-rule="nonzero"/></g><path d="M146.0043 104l-.3643.5689s-6.2562 9.5348-6.6229 10.1453c-.1206.2035.4085.636 1.1882 1.154L148 116l-1.9957-12zM172.3027 118c1.0277-.609 1.8126-1.1552 1.6833-1.4138-.3244-.6574-5.9097-10.97-5.9097-10.97l-.3245-.6162L165 117.7607l7.3027.2393z" fill="#F2F2F2"/><path d="M139.2104 117c-.0132-.1794-.6033.2738.2532-4.2463 1.1757-6.1912 4.135-10.664 8.5364-10.7537 0 0-.2422 1.1-.4183 1.3147-.251.3069-.7729.4154-.7729.4154-5.095.5665-6.5261 13.107-6.5151 13.2699h-1.0833zM174.4242 117c-2.3768-10.7927-11.3345-13.098-11.4242-13.1276l1.6742-.8724c.4027.123 9.0847 1.9863 11.2666 12.7472.0635.3075.0592 1.2528.0592 1.2528h-1.5758z" fill="#676868"/><g><path d="M227.9284 189.7635c-.1819 0-.3578.0227-.5297.0535H212.777s6.817 5.1788 10.8132 9.0794v85.4232c0 3.5589 1.9532 6.4715 4.3381 6.4715h145.7003c2.385 0 4.3361-2.9126 4.3361-6.4715V196.237c0-3.561-1.9511-6.4735-4.336-6.4735H227.9283z" fill="#1080C4"/><path d="M361.4714 281h-23.9428c-.2935 0-.5286-.2398-.5286-.5365v-32.927c0-.2967.2351-.5365.5286-.5365h15.4936a.519.519 0 0 1 .3718.1585l8.4512 8.5884a.5396.5396 0 0 1 .1548.38v24.3366c0 .2967-.2351.5365-.5286.5365zm-.5286-24.6515l-8.1397-8.2755h-14.746v31.854h22.8857v-23.5785z" fill="#F4F5F6"/><path d="M352.9992 255.8896v-8.3323c0-.307-.2246-.5573-.5006-.5573s-.4986.2503-.4986.5573v8.8896c0 .305.2227.5531.4986.5531h8.0009c.2778 0 .5005-.2482.5005-.5531 0-.3092-.2227-.5573-.5005-.5573h-7.5003zM342.5008 266.954h12.0003c.2767 0 .4989-.212.4989-.476s-.2222-.478-.4989-.478h-12.0003c-.2767 0-.5008.214-.5008.478s.2241.476.5008.476M342.5008 270.954h12.0003c.2767 0 .4989-.212.4989-.476s-.2222-.478-.4989-.478h-12.0003c-.2767 0-.5008.214-.5008.478s.2241.476.5008.476M342.5008 275.954h12.0003c.2767 0 .4989-.212.4989-.476s-.2222-.478-.4989-.478h-12.0003c-.2767 0-.5008.214-.5008.478s.2241.476.5008.476M350.736 260.6993l1.1645-1.899h1.045l-1.7164 2.5705L353 264h-1.0386l-1.2107-1.9451L349.5401 264h-1.0428l1.7667-2.6292-1.7143-2.5704h1.0365l1.1498 1.899zm-6.8002-.2853h1.4289c.4637 0 .8309-.1175 1.1036-.3546.2749-.2372.4092-.554.4092-.9527 0-.4322-.128-.7638-.3882-.9946s-.6379-.3462-1.1288-.3504h-1.4247v2.6523zm1.6576.7554h-1.6576V264H343v-7h2.3374c.7952 0 1.4058.1805 1.8338.5393.428.3588.642.8813.642 1.5674 0 .4365-.1174.8163-.3545 1.1394-.2392.3231-.5686.5665-.9925.726l1.6576 2.9712V264h-.9987l-1.5317-2.8306z" fill="#F4F5F6"/><path fill="#F2F2F2" d="M244 217h119v-6H244zM244 232h64v-7h-64zM258 266h64v-5h-64zM321 232h30v-7h-30zM292 280h30v-7h-30z"/></g></g></svg>