<svg xmlns="http://www.w3.org/2000/svg" viewBox="0 0 400 300"><g id="_239_mention_flatline" data-name="#239_mention_flatline"><path d="M343.76,246.47H56.24a.5.5,0,1,1,0-1H343.76a.5.5,0,0,1,0,1Z" fill="#d1d3d4"/><circle cx="218.65" cy="171.89" r="81" fill="#fff"/><path d="M218.65,253.39a81.51,81.51,0,1,1,81.51-81.5A81.59,81.59,0,0,1,218.65,253.39Zm0-162a80.51,80.51,0,1,0,80.51,80.51A80.6,80.6,0,0,0,218.65,91.38Z" fill="#231f20"/><path d="M259.48,202.57a47.91,47.91,0,0,1-18.22,15.24A53.56,53.56,0,0,1,217.89,223a55.62,55.62,0,0,1-20.38-3.72,52.48,52.48,0,0,1-16.73-10.36A47.89,47.89,0,0,1,169.47,193a51.62,51.62,0,0,1-.07-40.3,49.82,49.82,0,0,1,11.11-16A51.81,51.81,0,0,1,197,126.11a52.34,52.34,0,0,1,20.11-3.86,54.36,54.36,0,0,1,17.54,2.91,47.35,47.35,0,0,1,15.38,8.6,43.16,43.16,0,0,1,10.9,14,42.33,42.33,0,0,1,4.13,19,40.91,40.91,0,0,1-1.69,12.46,31.81,31.81,0,0,1-4.34,8.94,24.79,24.79,0,0,1-6,6,29.22,29.22,0,0,1-6.63,3.52,33.42,33.42,0,0,1-6.37,1.7,34.93,34.93,0,0,1-5.08.47q-5.69,0-8.13-2.3a7.39,7.39,0,0,1-2.57-5H224a32.08,32.08,0,0,1-6.77,5,21.37,21.37,0,0,1-10.57,2.3,18.2,18.2,0,0,1-14.09-6.37,21.29,21.29,0,0,1-4-7.17,28.51,28.51,0,0,1-1.42-9.21A34.9,34.9,0,0,1,189,165.66a32,32,0,0,1,5.35-9.75,25.39,25.39,0,0,1,8.47-6.78,25.09,25.09,0,0,1,11.38-2.5,20.41,20.41,0,0,1,9,1.76,12.22,12.22,0,0,1,5.62,6h.28l1.08-6.1H243l-5,26.69-.81,3.79a18.78,18.78,0,0,0-.41,3.93,7.47,7.47,0,0,0,.75,3.72,3.06,3.06,0,0,0,2.91,1.29,8.74,8.74,0,0,0,4.26-1.15,10.63,10.63,0,0,0,3.73-3.66,22.2,22.2,0,0,0,2.64-6.3,35.21,35.21,0,0,0,1-9.07,36,36,0,0,0-2.64-14.29,29.08,29.08,0,0,0-7.32-10.36,30.47,30.47,0,0,0-11.17-6.3,46.12,46.12,0,0,0-14.23-2.1,39.9,39.9,0,0,0-15.3,2.84,34.3,34.3,0,0,0-11.85,8,36.21,36.21,0,0,0-7.66,12.19,42.44,42.44,0,0,0-2.71,15.31,40.76,40.76,0,0,0,3,16,33.68,33.68,0,0,0,8.33,11.92,37.46,37.46,0,0,0,12.67,7.52A46.37,46.37,0,0,0,219,210.83a44,44,0,0,0,14.15-2.17,38,38,0,0,0,11.45-6.09Zm-44.16-43.75a14,14,0,0,0-6.1,1.29,13,13,0,0,0-4.53,3.52,15.61,15.61,0,0,0-2.78,5.21,21,21,0,0,0-.95,6.37q0,1.08.21,3.18a11.69,11.69,0,0,0,1.21,4.13,9.53,9.53,0,0,0,3.32,3.59,11.52,11.52,0,0,0,6.5,1.56,12.49,12.49,0,0,0,6.37-1.49,11.41,11.41,0,0,0,4.06-3.86,15.71,15.71,0,0,0,2.1-5.28,27.79,27.79,0,0,0,.61-5.76,15.4,15.4,0,0,0-2.43-8.94Q220.47,158.82,215.32,158.82Z" fill="#68e1fd"/><rect x="101.52" y="66.77" width="2.62" height="24.45" transform="translate(-24.53 54.6) rotate(-26.69)" fill="#231f20"/><path d="M107.15,91a.5.5,0,0,1-.45-.28l-11-21.84a.46.46,0,0,1,0-.38.5.5,0,0,1,.24-.29L98.29,67a.5.5,0,0,1,.66.22l11,21.85a.5.5,0,0,1,0,.38.48.48,0,0,1-.25.29L107.37,91A.59.59,0,0,1,107.15,91ZM96.84,68.89l10.53,21,1.45-.73-10.53-21Z" fill="#231f20"/><path d="M115.88,98.71c-.28-.86-5.92-7.7-6.13-9.19s1.06-7.6-.2-8.46S106,85.94,106,85.94s-4.92-9-6.33-8.38-1,5.54-.17,8.55S109.2,104,109.2,104Z" fill="#fff"/><path d="M109.2,104.53h-.09a.48.48,0,0,1-.34-.24c-.37-.61-9-15-9.79-18-.44-1.71-1.66-8.26.47-9.15,1.39-.58,4.19,3.68,6.46,7.71.69-1.53,1.93-4,3-4.29a1,1,0,0,1,.87.13c1,.69.86,3,.56,6.21a17.59,17.59,0,0,0-.14,2.6c.11.79,2.5,4,3.92,5.93a20.52,20.52,0,0,1,2.18,3.17.5.5,0,0,1-.16.55l-6.68,5.32A.51.51,0,0,1,109.2,104.53ZM99.78,78c-.8.34-.74,4.44.17,8,.68,2.6,7.84,14.69,9.38,17.29l5.91-4.7c-.34-.54-1.15-1.63-1.87-2.6-2.32-3.13-4-5.42-4.11-6.39a15.7,15.7,0,0,1,.14-2.83c.14-1.59.46-4.89-.13-5.29h0c-.5,0-1.85,2.22-2.83,4.66a.51.51,0,0,1-.44.31.49.49,0,0,1-.46-.26C103.41,82.3,100.59,78.1,99.78,78Z" fill="#231f20"/><path d="M91.39,223s-7,12.45-6.54,12.5,11.73,3.37,11.73,3.37,6.63-10.09,6.54-10.35S91.39,223,91.39,223Z" fill="#fff"/><path d="M96.58,239.42a.35.35,0,0,1-.14,0c-4.43-1.3-11.18-3.27-11.66-3.35a.61.61,0,0,1-.4-.28c-.15-.29-.35-.69,6.58-13a.49.49,0,0,1,.64-.2c11.82,5.35,11.89,5.55,12,5.8s.19.49-6.58,10.8A.5.5,0,0,1,96.58,239.42Zm-11.13-4.24c1.94.51,8.32,2.38,10.92,3.15,2.15-3.29,5.34-8.21,6.1-9.57-1.43-.75-7-3.34-10.87-5.07C89.38,227.63,86.14,233.54,85.45,235.18Z" fill="#231f20"/><path d="M84.85,235.54s-19.08-1-20,2.36,27.19,12,27.19,12l4.57-11Z" fill="#231f20"/><path d="M92,250.44l-.15,0c-6.71-2.07-28.52-9.08-27.52-12.66s17.28-2.89,20.53-2.72l.11,0,11.74,3.38a.5.5,0,0,1,.31.26.53.53,0,0,1,0,.41l-4.57,11A.5.5,0,0,1,92,250.44ZM78.84,235.88c-6.53,0-13.1.58-13.54,2.15-.5,1.78,13.24,7.22,26.42,11.3l4.19-10.09L84.76,236C82.92,235.94,80.88,235.88,78.84,235.88Z" fill="#231f20"/><polygon points="131.33 225.33 136.19 230.71 144.99 221.44 137.92 214.04 131.33 225.33" fill="#fff"/><path d="M136.19,231.21h0a.46.46,0,0,1-.36-.17L131,225.67a.51.51,0,0,1-.06-.59l6.58-11.29a.51.51,0,0,1,.38-.25.51.51,0,0,1,.42.15l7.07,7.41a.49.49,0,0,1,0,.69l-8.8,9.26A.48.48,0,0,1,136.19,231.21ZM132,225.27l4.25,4.7,8.1-8.52L138,214.86Z" fill="#231f20"/><path d="M136.19,230.71s-6.36,19.19-3,18.93,19.16-20.25,19.16-20.25L145,221.44Z" fill="#231f20"/><path d="M133.1,250.14a1.15,1.15,0,0,1-.93-.46c-1.87-2.39,2.63-16.35,3.55-19.13a.52.52,0,0,1,.11-.19l8.8-9.26A.48.48,0,0,1,145,221h0a.52.52,0,0,1,.37.16l7.33,7.95a.5.5,0,0,1,0,.64c-1.63,2.07-16.06,20.17-19.51,20.43ZM136.63,231c-2.07,6.24-4.86,16.59-3.68,18.1a.16.16,0,0,0,.17.07c2.24-.17,12.44-12,18.55-19.72L145,222.17Z" fill="#231f20"/><path d="M125.84,134.06S87.37,175.7,86.76,179.8c-1.17,7.95,43.86,48.76,43.86,48.76l10.31-14.08-26.8-31.24,35.22-48.15Z" fill="#231f20"/><path d="M130.62,229.06a.51.51,0,0,1-.33-.13c-1.85-1.67-45.22-41.08-44-49.21.61-4.12,35.25-41.72,39.2-46a.48.48,0,0,1,.39-.15l23.51,1a.52.52,0,0,1,.43.28.49.49,0,0,1-.05.51l-35,47.84,26.54,30.94a.48.48,0,0,1,0,.61L131,228.86a.52.52,0,0,1-.35.2Zm-4.57-94.49c-15.42,16.7-38.37,42.42-38.79,45.3-.93,6.24,30.54,36.36,43.29,47.95l9.74-13.32-26.53-30.93a.51.51,0,0,1,0-.62l34.67-47.41Z" fill="#231f20"/><polygon points="157.53 143.3 101.24 235.22 85.43 226.12 132.03 134.72 157.53 143.3" fill="#231f20"/><path d="M101.24,235.72a.45.45,0,0,1-.25-.07l-15.81-9.09a.5.5,0,0,1-.19-.66l46.6-91.41a.49.49,0,0,1,.6-.24l25.5,8.58a.47.47,0,0,1,.31.3.5.5,0,0,1,0,.43l-56.3,91.92A.47.47,0,0,1,101.24,235.72Zm-15.15-9.79,15,8.62,55.71-91-24.5-8.24Z" fill="#231f20"/><path d="M100.15,196.48a.46.46,0,0,1-.23,0,.5.5,0,0,1-.21-.68L126,145.47l-2.65-4.77a.49.49,0,0,1,.19-.68.5.5,0,0,1,.68.19l2.79,5a.54.54,0,0,1,0,.48l-26.46,50.52A.49.49,0,0,1,100.15,196.48Z" fill="#fff"/><path d="M153.07,73.94a5.37,5.37,0,0,0,2.89-.29,1.72,1.72,0,0,0,.81-.56.75.75,0,0,0,0-.92c-.4-.38-1.22-.1-1.49-.58,2.25-2.57,3.27-6.73,3.23-10.06a23.21,23.21,0,0,0-3.13-11.16,6.46,6.46,0,0,0-2.53-2.72,2.76,2.76,0,0,0-3.41.6,9.63,9.63,0,0,0-8.16-2c-2.65.46-4.85,1.75-7.21,2.95a23.36,23.36,0,0,1-7.15,1.91.82.82,0,0,0-.65.31.77.77,0,0,0,0,.52,9.18,9.18,0,0,0,3.88,6,2.73,2.73,0,0,1-1.67-.14c.31,2.19,2.82,3.25,5,3.7,1.58.33,3.46.59,4.75,1.66s2.48,3,3.8,4.37a18.22,18.22,0,0,0,7.48,4.71c1.06.33,1.34.85,2.27,1.29A5.08,5.08,0,0,0,153.07,73.94Z" fill="#fff"/><path d="M154,74.52a5.66,5.66,0,0,1-1-.08h0a5.48,5.48,0,0,1-1.5-.48,6.33,6.33,0,0,1-1-.62,3.62,3.62,0,0,0-1.19-.65,18.48,18.48,0,0,1-7.69-4.84,19.85,19.85,0,0,1-1.6-1.92,16.3,16.3,0,0,0-2.16-2.41,8.79,8.79,0,0,0-4-1.43L133.3,62c-1.85-.38-5-1.42-5.38-4.13a.49.49,0,0,1,.59-.55,9.77,9.77,0,0,1-2.8-5.23,1.3,1.3,0,0,1,.09-.86,1.33,1.33,0,0,1,1-.56,22.8,22.8,0,0,0,7-1.86l1-.52a22,22,0,0,1,6.32-2.48,10.31,10.31,0,0,1,8.21,1.77A3.42,3.42,0,0,1,153,47.2a7,7,0,0,1,2.74,2.92A23.56,23.56,0,0,1,159,61.53a17,17,0,0,1-2.94,9.9h0a1.7,1.7,0,0,1,1,.38,1.24,1.24,0,0,1,.09,1.56,2.15,2.15,0,0,1-1,.74A5.63,5.63,0,0,1,154,74.52Zm-.84-1.07a4.77,4.77,0,0,0,2.62-.27,1.2,1.2,0,0,0,.57-.38.26.26,0,0,0,0-.27,1,1,0,0,0-.44-.11,1.31,1.31,0,0,1-1.14-.59.5.5,0,0,1,.07-.57c2.34-2.68,3.14-6.91,3.1-9.72a22.61,22.61,0,0,0-3.06-10.92,6.09,6.09,0,0,0-2.32-2.52,2.29,2.29,0,0,0-2.78.44.5.5,0,0,1-.36.21.54.54,0,0,1-.39-.13,9.11,9.11,0,0,0-7.74-1.85,21.25,21.25,0,0,0-6,2.38l-1,.52a23.53,23.53,0,0,1-7.31,2c-.22,0-.28.06-.3.08s0,0,0,.18a8.67,8.67,0,0,0,3.66,5.61.51.51,0,0,1,.22.51.49.49,0,0,1-.38.39,3.13,3.13,0,0,1-1.06.08c.76,1.54,3,2.23,4.36,2.51l.56.11a9.84,9.84,0,0,1,4.41,1.65,15.69,15.69,0,0,1,2.3,2.57c.5.63,1,1.29,1.54,1.84a17.62,17.62,0,0,0,7.27,4.58,4.81,4.81,0,0,1,1.48.79,6.1,6.1,0,0,0,.86.53,4.28,4.28,0,0,0,1.24.39Z" fill="#231f20"/><path d="M134.5,63.47s-3,5.4-2.24,6.42,3.07.13,3.07.13" fill="#fff"/><path d="M133.55,70.88a2,2,0,0,1-1.68-.69c-.89-1.15,1.24-5.25,2.2-7a.49.49,0,0,1,.68-.19.5.5,0,0,1,.19.68c-1.49,2.65-2.55,5.39-2.28,5.87.42.54,1.86.21,2.49,0a.5.5,0,1,1,.36.93A6.05,6.05,0,0,1,133.55,70.88Z" fill="#231f20"/><path d="M134.73,56.62c-2,1.93-1.13,5.62-.94,8.05q.42,5.11,1.07,10.22c.28,2.16,5.89,1.8,6.84,1.08v7.2s1.61,3.86,6,1.43,5.22-5.4,5.22-5.4l-1.1-9.86s-3.7.3-6.22-4-2.92-11-2.92-11S136.72,54.74,134.73,56.62Z" fill="#fff"/><path d="M145,85.91a4,4,0,0,1-1.3-.22,4.49,4.49,0,0,1-2.47-2.33.58.58,0,0,1,0-.19V76.71a9.79,9.79,0,0,1-5.41-.14A2,2,0,0,1,134.37,75c-.44-3.39-.8-6.84-1.08-10.25,0-.41-.08-.85-.14-1.31-.28-2.39-.64-5.37,1.23-7.15h0c2.1-2,8-2.39,8.24-2.41A.51.51,0,0,1,143,54a.44.44,0,0,1,.16.34c0,.07.43,6.73,2.86,10.82,2.32,3.92,5.62,3.73,5.75,3.72a.49.49,0,0,1,.54.44l1.1,9.85a.46.46,0,0,1,0,.2c0,.13-.95,3.2-5.45,5.7A6.06,6.06,0,0,1,145,85.91Zm-2.81-2.85a3.49,3.49,0,0,0,1.85,1.69,4.2,4.2,0,0,0,3.39-.58c3.71-2.07,4.78-4.54,4.95-5l-1-9.31c-1.16-.06-4.08-.6-6.21-4.2s-2.81-9.07-3-10.76c-1.44.14-5.61.67-7.13,2.1h0c-1.51,1.43-1.18,4.13-.92,6.3,0,.47.11.93.14,1.35.28,3.39.64,6.83,1.07,10.2,0,.33.32.6.82.81a8.32,8.32,0,0,0,5.21-.07.5.5,0,0,1,.81.39Z" fill="#231f20"/><path d="M134.76,72.34s2.77,1.43,4-1.41" fill="#fff"/><path d="M136.31,73.2a4.08,4.08,0,0,1-1.78-.42.5.5,0,0,1-.22-.67.52.52,0,0,1,.68-.22,2.84,2.84,0,0,0,2,.19,2.27,2.27,0,0,0,1.27-1.35.49.49,0,0,1,.65-.26.51.51,0,0,1,.27.66,3,3,0,0,1-2.89,2.07Z" fill="#231f20"/><path d="M141.22,65.18a4.65,4.65,0,0,1,.78-2.41,6.71,6.71,0,0,1,1.13-1.65,2.25,2.25,0,0,1,1.8-.69,2.08,2.08,0,0,1,1.42,1,3.89,3.89,0,0,1,.55,1.66,7.36,7.36,0,0,1-2.9,6.76l.17-.22" fill="#fff"/><path d="M144,70.31a.49.49,0,0,1-.37-.16.5.5,0,0,1,0-.66l.17-.21a.5.5,0,0,1,.31-.18,6.93,6.93,0,0,0,2.32-6,3.44,3.44,0,0,0-.48-1.46,1.63,1.63,0,0,0-1.06-.74,1.75,1.75,0,0,0-1.39.56,6.35,6.35,0,0,0-1,1.53,4.34,4.34,0,0,0-.72,2.14.5.5,0,0,1-.47.53.49.49,0,0,1-.53-.47,5,5,0,0,1,.85-2.68,7.34,7.34,0,0,1,1.21-1.77,2.73,2.73,0,0,1,2.22-.83,2.56,2.56,0,0,1,1.77,1.19A4.39,4.39,0,0,1,147.4,63a7.92,7.92,0,0,1-3.11,7.22A.46.46,0,0,1,144,70.31Z" fill="#231f20"/><path d="M141.7,76a9.15,9.15,0,0,0,4.05-3.22s.19,5.22-4.16,7.06Z" fill="#231f20"/><path d="M141.59,80.31a.52.52,0,0,1-.29-.09.49.49,0,0,1-.21-.43L141.2,76a.49.49,0,0,1,.31-.45,8.62,8.62,0,0,0,3.8-3,.51.51,0,0,1,.56-.23.5.5,0,0,1,.38.46c0,.23.14,5.59-4.47,7.54A.65.65,0,0,1,141.59,80.31Zm.6-4L142.11,79a6.58,6.58,0,0,0,3-4.64A11.12,11.12,0,0,1,142.19,76.3Z" fill="#231f20"/><ellipse cx="136.28" cy="60.96" rx="0.48" ry="1.23" transform="translate(-10.61 34.3) rotate(-13.81)" fill="#231f20"/><path d="M156.88,77.68s-13.18,1.57-18,9.06-7.13,35-9.59,37-9.14,12.58-9,13.08,38.78,9.82,38.78,9.82,1.59-8.88,4.94-20.48S168,77.68,156.88,77.68Z" fill="#68e1fd"/><path d="M146.89,89.54c-.28.41-13.51,25.33-13.51,25.33l-17.47-20-9.17,7.67s15.63,26.14,25.6,28.66,30-34,29.42-37.83S150.81,83.92,146.89,89.54Z" fill="#68e1fd"/><path d="M133.38,115.37a.52.52,0,0,1-.38-.17l-7.7-8.81a.5.5,0,0,1,0-.7.51.51,0,0,1,.71,0l7.23,8.27,11.64-21.87a.5.5,0,0,1,.88.48c-.16.29-12,22.5-12,22.5a.52.52,0,0,1-.38.26Z" fill="#231f20"/><path d="M132.25,131.29a10.94,10.94,0,0,1-1.51-.1c-7-1-14.3-13.45-14.61-14a.5.5,0,1,1,.86-.5c.08.12,7.38,12.59,13.89,13.49s13.37-4.7,20.29-16.66a.51.51,0,0,1,.69-.18.49.49,0,0,1,.18.68C145.41,125.5,138.76,131.29,132.25,131.29Z" fill="#231f20"/><path d="M141.87,158.54a.5.5,0,0,1-.43-.25c-4.86-8.09-1.12-11.76-1-11.91a.5.5,0,1,1,.69.73c-.14.13-3.28,3.32,1.13,10.67a.49.49,0,0,1-.18.68A.46.46,0,0,1,141.87,158.54Z" fill="#fff"/><path d="M312.85,183a11,11,0,0,0-1.25-5.9c-.79-1.31-2-2.35-2.65-3.73-1.12-2.4-.33-5.21-.59-7.84a9.75,9.75,0,0,0-2.76-5.85c-1.37-1.39-3.15-2.34-4.46-3.79-2.15-2.38-2.77-5.72-4-8.69a21.81,21.81,0,0,0-8.61-10.13c2.35,4.72-3,10.73-.58,15.41.77,1.49,2.24,2.57,2.8,4.15,1.36,3.8-3.17,7.91-1.72,11.68.72,1.88,2.74,3,3.67,4.76,1.27,2.4.28,5.32.38,8,.14,3.75,2.42,7.1,5.13,9.7,1.69,1.61,3.57,3,5.39,4.47,2.18,1.75,3.1,3.58,5,.78A24.13,24.13,0,0,0,312.85,183Z" fill="#231f20"/><path d="M315.28,185.14c-.7-2.9-1.2-6,0-8.78,1.33-3.1,4.66-5.28,5.05-8.63.26-2.2-.85-4.42-.42-6.58s2.21-3.65,3.67-5.24a21.94,21.94,0,0,0,5.66-13.4c2.11,2.77,4.24,5.62,5.39,8.91s1.17,7.17-.78,10.06a8.94,8.94,0,0,0-1.37,2.23c-.66,2.14,1.17,4.13,2.11,6.16a7,7,0,0,1-.66,7.26c-1.92,2.39-5.61,3.32-6.56,6.24a14.44,14.44,0,0,0-.32,3.3,9.71,9.71,0,0,1-7,8.32c-2.27.55-2.22-.35-2.63-2.26C316.88,190.17,315.9,187.7,315.28,185.14Z" fill="#231f20"/><path d="M308.07,164.29c-1.61-5.58-2.26-11.39-3.95-16.94a93.52,93.52,0,0,0-5.27-12.63l6.91,2.91c2.21.94,4.61,2,5.66,4.21,1.81,3.77-1.45,8.6.46,12.32.67,1.31,1.88,2.25,2.74,3.44,2,2.86,1.72,6.79.6,10.11-.48,1.43-2.57,8.82-4.44,6.77-.75-.82-.82-3.89-1.13-5C309.16,167.73,308.57,166,308.07,164.29Z" fill="#231f20"/><path d="M311.94,238.28c-1.37-9.1-5.69-41.2-5.73-41.52l1-.13c0,.32,4.36,32.4,5.73,41.5Z" fill="#231f20"/><path d="M313.37,246.89h-1c.08-11.52,4.77-52.3,7.16-54.91l.74.68C318.21,194.91,313.46,234.49,313.37,246.89Z" fill="#231f20"/><path d="M315.71,244.83l-1-.05c1-23.31-3.91-72.28-4-72.77l1-.1C311.79,172.41,316.75,221.44,315.71,244.83Z" fill="#231f20"/><path d="M300,216.35h25.72l-1.8,26a8.59,8.59,0,0,1-8.57,8h-5a8.59,8.59,0,0,1-8.57-8Z" fill="#fff"/><path d="M315.36,250.91h-5a9.14,9.14,0,0,1-9.09-8.49l-1.8-26a.49.49,0,0,1,.14-.38.52.52,0,0,1,.38-.17h25.72a.52.52,0,0,1,.38.17.53.53,0,0,1,.14.38l-1.8,26A9.15,9.15,0,0,1,315.36,250.91Zm-14.8-34,1.76,25.49a8.11,8.11,0,0,0,8.06,7.53h5a8.12,8.12,0,0,0,8.06-7.53l1.76-25.49Z" fill="#231f20"/><path d="M311.68,43.77h-93.3a7.87,7.87,0,0,0-7.87,7.87v21a7.87,7.87,0,0,0,7.87,7.87H290V97c0-.75,6.12-10.61,9.77-16.45h11.92a7.87,7.87,0,0,0,7.87-7.87v-21A7.87,7.87,0,0,0,311.68,43.77Z" fill="#fff"/><path d="M290,97.51a.52.52,0,0,1-.5-.53h0V81H218.38A8.38,8.38,0,0,1,210,72.66v-21a8.38,8.38,0,0,1,8.37-8.37h93.3a8.37,8.37,0,0,1,8.37,8.37v21A8.37,8.37,0,0,1,311.68,81H300c-8.52,13.59-9.47,15.68-9.55,16v0A.48.48,0,0,1,290,97.51ZM218.38,44.27A7.38,7.38,0,0,0,211,51.64v21A7.38,7.38,0,0,0,218.38,80H290a.5.5,0,0,1,.5.5V94.81c1.15-2,3.6-6.16,8.85-14.54a.49.49,0,0,1,.42-.24h11.92a7.38,7.38,0,0,0,7.37-7.37v-21a7.38,7.38,0,0,0-7.37-7.37Z" fill="#d1d3d4"/><circle cx="228.6" cy="61.87" r="9.45" fill="#fff"/><path d="M228.6,71.82a10,10,0,1,1,9.94-9.95A10,10,0,0,1,228.6,71.82Zm0-18.9a9,9,0,1,0,8.94,8.95A9,9,0,0,0,228.6,52.92Z" fill="#d1d3d4"/><path d="M310.91,54.44H245.74a.5.5,0,0,1-.5-.5.5.5,0,0,1,.5-.5h65.17a.5.5,0,0,1,.5.5A.5.5,0,0,1,310.91,54.44Z" fill="#d1d3d4"/><path d="M310.91,61.38H245.74a.5.5,0,0,1-.5-.5.5.5,0,0,1,.5-.5h65.17a.5.5,0,0,1,.5.5A.5.5,0,0,1,310.91,61.38Z" fill="#d1d3d4"/><path d="M298.17,68.31H245.74a.5.5,0,0,1-.5-.5.5.5,0,0,1,.5-.5h52.43a.5.5,0,0,1,.5.5A.5.5,0,0,1,298.17,68.31Z" fill="#d1d3d4"/><path d="M104.35,112.16h-3.08c0-4-.2-9.56-.2-9.56l-5.94,9.56H69a4.58,4.58,0,0,0-4.58,4.57v15.6A4.57,4.57,0,0,0,69,136.9h35.37a4.57,4.57,0,0,0,4.58-4.57v-15.6A4.58,4.58,0,0,0,104.35,112.16Z" fill="#fff"/><path d="M104.35,137.41H69a5.09,5.09,0,0,1-5.07-5.08v-15.6A5.08,5.08,0,0,1,69,111.66H94.85l5.79-9.33a.53.53,0,0,1,.56-.22.51.51,0,0,1,.37.47s.16,5.21.19,9.08h2.59a5.09,5.09,0,0,1,5.08,5.07v15.6A5.09,5.09,0,0,1,104.35,137.41ZM69,112.66a4.08,4.08,0,0,0-4.07,4.07v15.6A4.08,4.08,0,0,0,69,136.41h35.38a4.08,4.08,0,0,0,4.08-4.08v-15.6a4.08,4.08,0,0,0-4.08-4.07h-3.08a.5.5,0,0,1-.5-.5c0-2.58-.1-5.92-.15-7.89l-5.06,8.16a.52.52,0,0,1-.43.23Z" fill="#d1d3d4"/><circle cx="75.07" cy="124.53" r="6.51" fill="#fff"/><path d="M75.07,131.54a7,7,0,1,1,7-7A7,7,0,0,1,75.07,131.54Zm0-13a6,6,0,1,0,6,6A6,6,0,0,0,75.07,118.52Z" fill="#d1d3d4"/><path d="M103.74,121.69H85.55a.5.5,0,0,1,0-1h18.19a.5.5,0,1,1,0,1Z" fill="#d1d3d4"/><path d="M99.84,127.92H85.55a.51.51,0,0,1-.5-.5.5.5,0,0,1,.5-.5H99.84a.5.5,0,0,1,.5.5A.5.5,0,0,1,99.84,127.92Z" fill="#d1d3d4"/></g></svg>